<svg enable-background="new 0 0 128 128" viewBox="0 0 128 128" xmlns="http://www.w3.org/2000/svg" xmlns:xlink="http://www.w3.org/1999/xlink"><linearGradient id="a"><stop offset="0" stop-color="#c4a375"/><stop offset=".3568" stop-color="#c29f71"/><stop offset=".703" stop-color="#bc9465"/><stop offset="1" stop-color="#b38555"/></linearGradient><linearGradient id="b" gradientTransform="matrix(-1 0 0 1 -161.45 0)" gradientUnits="userSpaceOnUse" x1="-262.64" x2="-257.49" xlink:href="#a" y1="43.964" y2="56.273"/><linearGradient id="c" gradientTransform="matrix(-1 0 0 1 -161.45 0)" gradientUnits="userSpaceOnUse" x1="-280.61" x2="-278.88" xlink:href="#a" y1="47.749" y2="51.885"/><linearGradient id="d" gradientTransform="matrix(-1 0 0 1 -161.45 0)" gradientUnits="userSpaceOnUse" x1="-280.09" x2="-278.14" xlink:href="#a" y1="51.151" y2="55.802"/><linearGradient id="e" gradientTransform="matrix(-1 0 0 1 -161.45 0)" gradientUnits="userSpaceOnUse" x1="-279.31" x2="-277.3" xlink:href="#a" y1="53.844" y2="58.645"/><linearGradient id="f" gradientTransform="matrix(-1 0 0 1 -161.45 0)" gradientUnits="userSpaceOnUse" x1="-281.89" x2="-279.73" xlink:href="#a" y1="42.515" y2="47.682"/><linearGradient id="g" gradientTransform="matrix(-1 0 0 1 -161.45 0)" gradientUnits="userSpaceOnUse" x1="-282.69" x2="-279.53" xlink:href="#a" y1="35.786" y2="43.331"/><linearGradient id="h" gradientTransform="matrix(-1 0 0 1 -161.45 0)" gradientUnits="userSpaceOnUse" x1="-281.11" x2="-278.22" xlink:href="#a" y1="31.245" y2="38.157"/><linearGradient id="i" gradientTransform="matrix(-1 0 0 1 -161.45 0)" gradientUnits="userSpaceOnUse" x1="-277.28" x2="-275" xlink:href="#a" y1="29.739" y2="35.186"/><linearGradient id="j" gradientTransform="matrix(-1 0 0 1 -161.45 0)" gradientUnits="userSpaceOnUse" x1="-273.5" x2="-273.4" xlink:href="#a" y1="36.353" y2="36.588"/><linearGradient id="k" gradientTransform="matrix(-1 0 0 1 -161.45 0)" gradientUnits="userSpaceOnUse" x1="-273.68" x2="-269.36" xlink:href="#a" y1="29.67" y2="39.983"/><linearGradient id="l" gradientTransform="matrix(-1 0 0 1 -161.45 0)" gradientUnits="userSpaceOnUse" x1="-266.3" x2="-265.96" xlink:href="#a" y1="44.626" y2="45.445"/><linearGradient id="m" gradientTransform="matrix(-1 0 0 1 -161.45 0)" gradientUnits="userSpaceOnUse" x1="-269.38" x2="-265.56" xlink:href="#a" y1="33.551" y2="42.682"/><linearGradient id="n" gradientTransform="matrix(-1 0 0 1 -161.45 0)" gradientUnits="userSpaceOnUse" x1="-266.03" x2="-261.47" xlink:href="#a" y1="38.47" y2="49.361"/><linearGradient id="o" gradientTransform="matrix(-1 0 0 1 -161.45 0)" gradientUnits="userSpaceOnUse" x1="-259.79" x2="-253.94" xlink:href="#a" y1="48.768" y2="62.747"/><linearGradient id="p" gradientTransform="matrix(-1 0 0 1 -161.45 0)" gradientUnits="userSpaceOnUse" x1="-255.5" x2="-252.29" xlink:href="#a" y1="56.013" y2="63.687"/><linearGradient id="q"><stop offset="0" stop-color="#a57434"/><stop offset="1" stop-color="#ead4ad"/></linearGradient><linearGradient id="r" gradientUnits="userSpaceOnUse" x1="110.27" x2="119.66" xlink:href="#q" y1="66.856" y2="66.856"/><linearGradient id="s"><stop offset="0" stop-color="#ead4ad"/><stop offset="1" stop-color="#a57434"/></linearGradient><linearGradient id="t" gradientUnits="userSpaceOnUse" x1="10.215" x2="19.122" xlink:href="#s" y1="66.189" y2="66.189"/><linearGradient id="u"><stop offset="0" stop-color="#a57434"/><stop offset=".5" stop-color="#ead4ad"/><stop offset="1" stop-color="#a57434"/></linearGradient><linearGradient id="v" gradientUnits="userSpaceOnUse" x1="9.1605" x2="37.817" xlink:href="#u" y1="64.219" y2="64.219"/><linearGradient id="w" gradientUnits="userSpaceOnUse" x1="91.035" x2="120.76" xlink:href="#u" y1="64.544" y2="64.544"/><linearGradient id="x" gradientTransform="matrix(-1 0 0 -1 -2766 1020)" gradientUnits="userSpaceOnUse" x1="-2857.8" x2="-2803.5" xlink:href="#u" y1="952.44" y2="952.44"/><linearGradient id="y" gradientUnits="userSpaceOnUse" x1="18.14" x2="63.9" xlink:href="#u" y1="70.1" y2="70.1"/><linearGradient id="z" gradientUnits="userSpaceOnUse" x1="63.6" x2="111.4" xlink:href="#u" y1="70.3" y2="70.3"/><linearGradient id="A" gradientUnits="userSpaceOnUse" x1="19.048" x2="19.048" xlink:href="#u" y1="59.271" y2="75.863"/><linearGradient id="B" gradientUnits="userSpaceOnUse" x1="63.48" x2="63.48" xlink:href="#u" y1="66.254" y2="79.322"/><linearGradient id="C" gradientUnits="userSpaceOnUse" x1="110.39" x2="110.39" xlink:href="#u" y1="59.69" y2="76.631"/><linearGradient id="D" gradientUnits="userSpaceOnUse" x1="91.657" x2="91.657" xlink:href="#u" y1="58.912" y2="75.427"/><linearGradient id="E" gradientUnits="userSpaceOnUse" x1="38.043" x2="38.043" xlink:href="#u" y1="58.584" y2="75.096"/><linearGradient id="F" gradientUnits="userSpaceOnUse" x1="119.97" x2="119.97" xlink:href="#u" y1="55.861" y2="68.105"/><linearGradient id="G" gradientUnits="userSpaceOnUse" x1="9.9057" x2="9.9057" xlink:href="#u" y1="56.052" y2="67.102"/><linearGradient id="H" gradientUnits="userSpaceOnUse" x1="107.98" x2="117.48" xlink:href="#q" y1="74.799" y2="74.799"/><linearGradient id="I" gradientUnits="userSpaceOnUse" x1="12.32" x2="21.081" xlink:href="#s" y1="73.526" y2="73.526"/><linearGradient id="J" gradientUnits="userSpaceOnUse" x1="11.27" x2="38.531" xlink:href="#u" y1="71.695" y2="71.695"/><linearGradient id="K" gradientUnits="userSpaceOnUse" x1="89.509" x2="118.57" xlink:href="#u" y1="72.517" y2="72.517"/><linearGradient id="L" gradientTransform="matrix(-1 0 0 -1 -2766 1020)" gradientUnits="userSpaceOnUse" x1="-2856.3" x2="-2804.2" xlink:href="#u" y1="944.11" y2="944.11"/><linearGradient id="M" gradientUnits="userSpaceOnUse" x1="20.1" x2="63.3" xlink:href="#u" y1="78.1" y2="78.1"/><linearGradient id="N" gradientUnits="userSpaceOnUse" x1="63" x2="109.1" xlink:href="#u" y1="78.6" y2="78.6"/><linearGradient id="O" gradientUnits="userSpaceOnUse" x1="20.972" x2="20.972" xlink:href="#u" y1="66.85" y2="84.194"/><linearGradient id="P" gradientUnits="userSpaceOnUse" x1="62.912" x2="62.912" xlink:href="#u" y1="74.437" y2="87.451"/><linearGradient id="Q" gradientUnits="userSpaceOnUse" x1="108.12" x2="108.12" xlink:href="#u" y1="67.822" y2="85.055"/><linearGradient id="R" gradientUnits="userSpaceOnUse" x1="90.117" x2="90.117" xlink:href="#u" y1="67.359" y2="83.628"/><linearGradient id="S" gradientUnits="userSpaceOnUse" x1="38.736" x2="38.736" xlink:href="#u" y1="66.846" y2="83.273"/><linearGradient id="T" gradientUnits="userSpaceOnUse" x1="117.71" x2="117.71" xlink:href="#u" y1="63.28" y2="76.16"/><linearGradient id="U" gradientUnits="userSpaceOnUse" x1="12.071" x2="12.071" xlink:href="#u" y1="62.422" y2="74.596"/><linearGradient id="V" gradientUnits="userSpaceOnUse" x1="105.68" x2="115.29" xlink:href="#q" y1="82.733" y2="82.733"/><linearGradient id="W" gradientUnits="userSpaceOnUse" x1="14.419" x2="23.04" xlink:href="#s" y1="80.856" y2="80.856"/><linearGradient id="X" gradientUnits="userSpaceOnUse" x1="13.369" x2="39.243" xlink:href="#u" y1="79.146" y2="79.146"/><linearGradient id="Y" gradientUnits="userSpaceOnUse" x1="87.985" x2="116.38" xlink:href="#u" y1="80.463" y2="80.463"/><linearGradient id="Z" gradientTransform="matrix(-1 0 0 -1 -2766 1020)" gradientUnits="userSpaceOnUse" x1="-2854.7" x2="-2804.9" xlink:href="#u" y1="935.91" y2="935.91"/><linearGradient id="aa" gradientUnits="userSpaceOnUse" x1="22.06" x2="62.7" xlink:href="#u" y1="86.2" y2="86.2"/><linearGradient id="ab" gradientUnits="userSpaceOnUse" x1="62.4" x2="106.8" xlink:href="#u" y1="86.8" y2="86.8"/><linearGradient id="ac" gradientUnits="userSpaceOnUse" x1="22.894" x2="22.894" xlink:href="#u" y1="74.393" y2="92.544"/><linearGradient id="ad" gradientUnits="userSpaceOnUse" x1="62.344" x2="62.344" xlink:href="#u" y1="82.581" y2="95.603"/><linearGradient id="ae" gradientUnits="userSpaceOnUse" x1="105.85" x2="105.85" xlink:href="#u" y1="75.916" y2="93.499"/><linearGradient id="af" gradientUnits="userSpaceOnUse" x1="88.583" x2="88.583" xlink:href="#u" y1="75.749" y2="91.83"/><linearGradient id="ag" gradientUnits="userSpaceOnUse" x1="39.427" x2="39.427" xlink:href="#u" y1="75.052" y2="91.45"/><linearGradient id="ah" gradientUnits="userSpaceOnUse" x1="115.46" x2="115.46" xlink:href="#u" y1="70.646" y2="84.214"/><linearGradient id="ai" gradientUnits="userSpaceOnUse" x1="14.228" x2="14.228" xlink:href="#u" y1="68.74" y2="82.092"/><linearGradient id="aj" gradientUnits="userSpaceOnUse" x1="103.38" x2="113.11" xlink:href="#q" y1="90.668" y2="90.668"/><linearGradient id="ak" gradientUnits="userSpaceOnUse" x1="16.519" x2="24.999" xlink:href="#s" y1="88.185" y2="88.185"/><linearGradient id="al" gradientUnits="userSpaceOnUse" x1="15.469" x2="39.955" xlink:href="#u" y1="86.598" y2="86.598"/><linearGradient id="am" gradientUnits="userSpaceOnUse" x1="86.462" x2="114.2" xlink:href="#u" y1="88.408" y2="88.408"/><linearGradient id="an" gradientTransform="matrix(-1 0 0 -1 -2766 1020)" gradientUnits="userSpaceOnUse" x1="-2853.2" x2="-2805.6" xlink:href="#u" y1="927.71" y2="927.71"/><linearGradient id="ao" gradientUnits="userSpaceOnUse" x1="24.02" x2="62.1" xlink:href="#u" y1="94.2" y2="94.2"/><linearGradient id="ap" gradientUnits="userSpaceOnUse" x1="61.8" x2="104.5" xlink:href="#u" y1="95" y2="95"/><linearGradient id="aq" gradientUnits="userSpaceOnUse" x1="24.815" x2="24.815" xlink:href="#u" y1="81.937" y2="100.89"/><linearGradient id="ar" gradientUnits="userSpaceOnUse" x1="61.776" x2="61.776" xlink:href="#u" y1="90.72" y2="103.76"/><linearGradient id="as" gradientUnits="userSpaceOnUse" x1="103.58" x2="103.58" xlink:href="#u" y1="84.01" y2="101.94"/><linearGradient id="at" gradientUnits="userSpaceOnUse" x1="87.049" x2="87.049" xlink:href="#u" y1="84.139" y2="100.03"/><linearGradient id="au" gradientUnits="userSpaceOnUse" x1="40.118" x2="40.118" xlink:href="#u" y1="83.257" y2="99.628"/><linearGradient id="av" gradientUnits="userSpaceOnUse" x1="113.21" x2="113.21" xlink:href="#u" y1="78.012" y2="92.268"/><linearGradient id="aw" gradientUnits="userSpaceOnUse" x1="16.385" x2="16.385" xlink:href="#u" y1="75.059" y2="89.589"/><linearGradient id="ax" gradientUnits="userSpaceOnUse" x1="101.08" x2="110.93" xlink:href="#q" y1="98.603" y2="98.603"/><linearGradient id="ay" gradientUnits="userSpaceOnUse" x1="18.618" x2="26.957" xlink:href="#s" y1="95.515" y2="95.515"/><linearGradient id="az" gradientUnits="userSpaceOnUse" x1="17.569" x2="40.667" xlink:href="#u" y1="94.05" y2="94.05"/><linearGradient id="aA" gradientUnits="userSpaceOnUse" x1="84.939" x2="112.02" xlink:href="#u" y1="96.354" y2="96.354"/><linearGradient id="aB" gradientTransform="matrix(-1 0 0 -1 -2766 1020)" gradientUnits="userSpaceOnUse" x1="-2851.7" x2="-2806.3" xlink:href="#u" y1="919.63" y2="919.63"/><linearGradient id="aC" gradientUnits="userSpaceOnUse" x1="25.98" x2="61.5" xlink:href="#u" y1="102.3" y2="102.3"/><linearGradient id="aD" gradientUnits="userSpaceOnUse" x1="61.2" x2="102.2" xlink:href="#u" y1="103.2" y2="103.2"/><linearGradient id="aE" gradientUnits="userSpaceOnUse" x1="26.737" x2="26.737" xlink:href="#u" y1="89.48" y2="109.24"/><linearGradient id="aF" gradientUnits="userSpaceOnUse" x1="61.208" x2="61.208" xlink:href="#u" y1="98.854" y2="111.94"/><linearGradient id="aG" gradientUnits="userSpaceOnUse" x1="101.31" x2="101.31" xlink:href="#u" y1="92.104" y2="110.39"/><linearGradient id="aH" gradientUnits="userSpaceOnUse" x1="85.515" x2="85.515" xlink:href="#u" y1="92.529" y2="108.23"/><linearGradient id="aI" gradientUnits="userSpaceOnUse" x1="40.809" x2="40.809" xlink:href="#u" y1="91.463" y2="107.8"/><linearGradient id="aJ" gradientUnits="userSpaceOnUse" x1="110.96" x2="110.96" xlink:href="#u" y1="85.379" y2="100.32"/><linearGradient id="aK" gradientUnits="userSpaceOnUse" x1="18.543" x2="18.543" xlink:href="#u" y1="81.378" y2="97.085"/><linearGradient id="aL" gradientUnits="userSpaceOnUse" x1="98.787" x2="108.74" xlink:href="#q" y1="106.54" y2="106.54"/><linearGradient id="aM" gradientUnits="userSpaceOnUse" x1="20.718" x2="28.916" xlink:href="#s" y1="102.84" y2="102.84"/><linearGradient id="aN" gradientUnits="userSpaceOnUse" x1="19.668" x2="41.379" xlink:href="#u" y1="101.5" y2="101.5"/><linearGradient id="aO" gradientUnits="userSpaceOnUse" x1="83.416" x2="109.84" xlink:href="#u" y1="104.3" y2="104.3"/><linearGradient id="aP" gradientTransform="matrix(-1 0 0 -1 -2766 1020)" gradientUnits="userSpaceOnUse" x1="-2850.2" x2="-2807" xlink:href="#u" y1="911.43" y2="911.43"/><linearGradient id="aQ" gradientUnits="userSpaceOnUse" x1="27.94" x2="60.9" xlink:href="#u" y1="110.3" y2="110.3"/><linearGradient id="aR" gradientUnits="userSpaceOnUse" x1="60.6" x2="99.9" xlink:href="#u" y1="111.4" y2="111.4"/><linearGradient id="aS" gradientUnits="userSpaceOnUse" x1="28.658" x2="28.658" xlink:href="#u" y1="97.024" y2="117.59"/><linearGradient id="aT" gradientUnits="userSpaceOnUse" x1="60.64" x2="60.64" xlink:href="#u" y1="106.99" y2="120.11"/><linearGradient id="aU" gradientUnits="userSpaceOnUse" x1="99.036" x2="99.036" xlink:href="#u" y1="100.2" y2="118.83"/><linearGradient id="aV" gradientUnits="userSpaceOnUse" x1="83.981" x2="83.981" xlink:href="#u" y1="100.92" y2="116.44"/><linearGradient id="aW" gradientUnits="userSpaceOnUse" x1="41.5" x2="41.5" xlink:href="#u" y1="99.669" y2="115.98"/><linearGradient id="aX" gradientUnits="userSpaceOnUse" x1="108.7" x2="108.7" xlink:href="#u" y1="92.746" y2="108.38"/><linearGradient id="aY" gradientUnits="userSpaceOnUse" x1="20.7" x2="20.7" xlink:href="#u" y1="87.696" y2="104.58"/><linearGradient id="aZ" gradientUnits="userSpaceOnUse" x1="95.974" x2="106.58" xlink:href="#q" y1="114.39" y2="114.39"/><linearGradient id="a0" gradientUnits="userSpaceOnUse" x1="22.822" x2="30.783" xlink:href="#s" y1="110.18" y2="110.18"/><linearGradient id="a1" gradientUnits="userSpaceOnUse" x1="21.768" x2="42.101" xlink:href="#u" y1="108.96" y2="108.96"/><linearGradient id="a2" gradientUnits="userSpaceOnUse" x1="81.905" x2="107.65" xlink:href="#u" y1="112.26" y2="112.26"/><linearGradient id="a3" gradientTransform="matrix(-1 0 0 -1 -2766 1020)" gradientUnits="userSpaceOnUse" x1="-2848.7" x2="-2807.7" xlink:href="#u" y1="903.13" y2="903.13"/><linearGradient id="a4" gradientUnits="userSpaceOnUse" x1="29.9" x2="60.3" xlink:href="#u" y1="118.3" y2="118.3"/><linearGradient id="a5" gradientUnits="userSpaceOnUse" x1="59.7" x2="97.7" xlink:href="#u" y1="119.6" y2="119.6"/><linearGradient id="a6" gradientUnits="userSpaceOnUse" x1="30.526" x2="30.526" xlink:href="#u" y1="104.63" y2="125.88"/><linearGradient id="a7" gradientUnits="userSpaceOnUse" x1="59.937" x2="59.937" xlink:href="#u" y1="115.29" y2="128.02"/><linearGradient id="a8" gradientUnits="userSpaceOnUse" x1="96.526" x2="96.526" xlink:href="#u" y1="108.55" y2="126.85"/><linearGradient id="a9" gradientUnits="userSpaceOnUse" x1="82.453" x2="82.453" xlink:href="#u" y1="109.28" y2="124.7"/><linearGradient id="ba" gradientUnits="userSpaceOnUse" x1="42.195" x2="42.195" xlink:href="#u" y1="107.85" y2="124.21"/><linearGradient id="bb" gradientUnits="userSpaceOnUse" x1="106.46" x2="106.46" xlink:href="#u" y1="100.08" y2="116.5"/><linearGradient id="bc" gradientUnits="userSpaceOnUse" x1="22.86" x2="22.86" xlink:href="#u" y1="93.998" y2="112.11"/><linearGradient id="bd" gradientUnits="userSpaceOnUse" x1="10.21" x2="20.165" xlink:href="#s" y1="51.889" y2="51.889"/><linearGradient id="be" gradientUnits="userSpaceOnUse" x1="16.563" x2="26.128" xlink:href="#s" y1="50.175" y2="50.175"/><linearGradient id="bf" gradientUnits="userSpaceOnUse" x1="22.348" x2="32.752" xlink:href="#s" y1="49.026" y2="49.026"/><linearGradient id="bg" gradientUnits="userSpaceOnUse" x1="35.589" x2="46.307" xlink:href="#s" y1="47.512" y2="47.512"/><linearGradient id="bh" gradientUnits="userSpaceOnUse" x1="48.164" x2="58.89" xlink:href="#s" y1="46.83" y2="46.83"/><linearGradient id="bi" gradientUnits="userSpaceOnUse" x1="54.736" x2="67.105" xlink:href="#s" y1="46.682" y2="46.682"/><linearGradient id="bj" gradientUnits="userSpaceOnUse" x1="62.277" x2="75.663" xlink:href="#s" y1="46.676" y2="46.676"/><linearGradient id="bk" gradientUnits="userSpaceOnUse" x1="70.696" x2="83.618" xlink:href="#s" y1="46.895" y2="46.895"/><linearGradient id="bl" gradientUnits="userSpaceOnUse" x1="77.563" x2="90.301" xlink:href="#s" y1="47.323" y2="47.323"/><linearGradient id="bm" gradientUnits="userSpaceOnUse" x1="91.728" x2="103.73" xlink:href="#s" y1="48.662" y2="48.662"/><linearGradient id="bn" gradientUnits="userSpaceOnUse" x1="98.206" x2="110.72" xlink:href="#s" y1="49.732" y2="49.732"/><linearGradient id="bo" gradientUnits="userSpaceOnUse" x1="104.63" x2="117.31" xlink:href="#s" y1="52.526" y2="52.526"/><linearGradient id="bp" gradientUnits="userSpaceOnUse" x1="85.081" x2="97.047" xlink:href="#s" y1="47.886" y2="47.886"/><linearGradient id="bq" gradientUnits="userSpaceOnUse" x1="41.883" x2="51.99" xlink:href="#s" y1="47.108" y2="47.108"/><linearGradient id="br" gradientUnits="userSpaceOnUse" x1="29.191" x2="39.208" xlink:href="#s" y1="48.14" y2="48.14"/><radialGradient id="bs" cx="64.893" cy="66.698" gradientTransform="matrix(1 0 0 .3611 0 42.616)" gradientUnits="userSpaceOnUse" r="111.07"><stop offset=".0011619" stop-color="#574129"/><stop offset=".1246" stop-color="#61492e"/><stop offset=".3348" stop-color="#7c5f3a"/><stop offset=".6061" stop-color="#a8824d"/><stop offset=".925" stop-color="#e4b269"/><stop offset=".9943" stop-color="#f2bd6f"/></radialGradient><linearGradient id="bt" gradientUnits="userSpaceOnUse" x1="105.57" x2="116.64" xlink:href="#u" y1="60.878" y2="60.878"/><linearGradient id="bu"><stop offset="0" stop-color="#e7c08a"/><stop offset=".2082" stop-color="#e4bd86"/><stop offset=".4106" stop-color="#ddb37a"/><stop offset=".6107" stop-color="#d0a367"/><stop offset=".8081" stop-color="#be8d4c"/><stop offset=".9974" stop-color="#a8712a"/></linearGradient><linearGradient id="bv" gradientUnits="userSpaceOnUse" x1="28.451" x2="33.603" xlink:href="#bu" y1="45.639" y2="57.948"/><linearGradient id="bw" gradientUnits="userSpaceOnUse" x1="10.482" x2="12.213" xlink:href="#bu" y1="49.425" y2="53.56"/><linearGradient id="bx" gradientUnits="userSpaceOnUse" x1="11.01" x2="12.957" xlink:href="#bu" y1="52.826" y2="57.477"/><linearGradient id="by" gradientUnits="userSpaceOnUse" x1="11.782" x2="13.792" xlink:href="#bu" y1="55.519" y2="60.32"/><linearGradient id="bz" gradientUnits="userSpaceOnUse" x1="9.2069" x2="11.369" xlink:href="#bu" y1="44.191" y2="49.357"/><linearGradient id="bA"><stop offset="0" stop-color="#e7c08a"/><stop offset=".3118" stop-color="#e4bc86"/><stop offset=".6148" stop-color="#dcb07a"/><stop offset=".9133" stop-color="#ce9d67"/><stop offset=".9979" stop-color="#c99660"/></linearGradient><linearGradient id="bB" gradientUnits="userSpaceOnUse" x1="8.4031" x2="11.562" xlink:href="#bA" y1="37.461" y2="45.006"/><linearGradient id="bC" gradientUnits="userSpaceOnUse" x1="9.9865" x2="12.88" xlink:href="#bu" y1="32.92" y2="39.832"/><linearGradient id="bD" gradientUnits="userSpaceOnUse" x1="13.811" x2="16.091" xlink:href="#bu" y1="31.414" y2="36.861"/><linearGradient id="bE" gradientUnits="userSpaceOnUse" x1="17.595" x2="17.693" xlink:href="#bA" y1="38.028" y2="38.264"/><linearGradient id="bF" gradientUnits="userSpaceOnUse" x1="17.417" x2="21.734" xlink:href="#bu" y1="31.345" y2="41.658"/><linearGradient id="bG" gradientUnits="userSpaceOnUse" x1="24.793" x2="25.136" xlink:href="#bA" y1="46.301" y2="47.12"/><linearGradient id="bH" gradientUnits="userSpaceOnUse" x1="21.713" x2="25.536" xlink:href="#bu" y1="35.226" y2="44.357"/><linearGradient id="bI" gradientUnits="userSpaceOnUse" x1="25.064" x2="29.623" xlink:href="#bu" y1="40.145" y2="51.036"/><linearGradient id="bJ" gradientUnits="userSpaceOnUse" x1="31.302" x2="37.154" xlink:href="#bu" y1="50.443" y2="64.422"/><linearGradient id="bK" gradientUnits="userSpaceOnUse" x1="35.594" x2="38.807" xlink:href="#bu" y1="57.688" y2="65.362"/><path d="m96.76 49.9c-.18-.37-.28-.77-.34-1.19.93-1.62 1.91-3.26 2.94-4.86-.76 2.5.46 5.5 1.23 8.23-1.28 2.24-2.58 4.67-3.88 7.28.54-3.13.48-6.47.05-9.46z" fill="url(#b)"/><path d="m115.52 50.1c.18-1.17.34-2.33.46-3.46 1.41 1.55 3.1 2.9 4.91 3.13-.22 1.55-.48 2.98-.71 4.2-1.93-.71-3.63-2.12-4.66-3.87z" fill="url(#c)"/><path d="m115.03 52.92c.18-.94.35-1.88.49-2.82 1.03 1.76 2.72 3.17 4.67 3.88-.44 2.28-.82 3.82-.84 3.93-.01.02-.02.04-.02.06-2.05-.94-3.54-2.85-4.3-5.05z" fill="url(#d)"/><path d="m114.23 56.64c.3-1.21.56-2.46.8-3.73.76 2.21 2.25 4.12 4.29 5.05-.38 1.37-1.78 2.21-3.17 1.87-1.41-.35-2.27-1.77-1.92-3.19z" fill="url(#e)"/><path d="m120.9 49.77c-1.81-.23-3.51-1.58-4.91-3.13.09-.81.16-1.61.21-2.38 1.79.5 3.76.24 5.34-1.01-.06 1.38-.18 2.86-.37 4.47-.08.7-.17 1.39-.27 2.05z" fill="url(#f)"/><path d="m116.25 39.52c.8.18 1.68.16 2.65-.17 1.07-1.07 1.77-2.14 2.15-3.24.45 1.91.61 4.29.49 7.14-1.58 1.25-3.55 1.51-5.34 1.01v-.02c.18-.23.38-.46.59-.67-.21.21-.41.44-.59.67.11-1.74.14-3.36.05-4.72z" fill="url(#g)"/><path d="m116.25 39.52c-.11-1.6-.38-2.87-.85-3.64 1.99-1.05 2.23-3.19 1.18-5.53 1.01.34 1.91.94 2.64 1.82.82.98 1.43 2.29 1.82 3.95-.39 1.11-1.09 2.18-2.15 3.24-.97.32-1.84.34-2.64.16z" fill="url(#h)"/><path d="m115.4 35.88c-.07-.11-.13-.23-.2-.32-.15-.18-.27-.28-.68-.25-.49.03-1.09.32-1.78.78.35-1.93.3-3.93-.17-5.72.53-.17 1.05-.28 1.57-.32.87-.06 1.69.05 2.44.3 1.05 2.34.81 4.48-1.18 5.53z" fill="url(#i)"/><path d="m112.24 36.45c-.08.06-.17.14-.26.21l-.22-.22c.17.01.33.01.48.01z" fill="url(#j)"/><path d="m107.31 33.78c1.76-1.66 3.54-2.86 5.26-3.41.46 1.8.52 3.79.17 5.72-.16.11-.32.23-.49.36-.16 0-.32 0-.47-.01l-.25-.25.25.25c-.96-.04-1.88-.34-2.36-1.31.48.96 1.4 1.26 2.36 1.31l.22.22c-1.38 1.12-3.03 2.91-4.87 5.35.48-2.63.22-5.42.18-8.23z" fill="url(#k)"/><path d="m104.54 45.65c-.04-.25-.1-.51-.15-.76.24-.01.49-.05.74-.09-.2.28-.39.55-.59.85z" fill="url(#l)"/><path d="m107.31 33.78c.05 2.81.3 5.61-.19 8.23-.64.85-1.31 1.79-1.99 2.78-.25.05-.5.08-.74.09-.42-2.11-1.05-4.29-1.24-6.43 1.36-1.76 2.75-3.36 4.16-4.67z" fill="url(#m)"/><path d="m99.35 43.85c.5-.79 1.02-1.56 1.54-2.32.03-.02.05-.05.08-.07-.03.02-.05.05-.08.07.73-1.07 1.48-2.1 2.25-3.08.19 2.14.82 4.32 1.24 6.43-.71.03-1.31-.2-1.31-1.31 0 1.12.59 1.34 1.31 1.31.05.25.11.51.15.76-.45.68-.92 1.4-1.38 2.14h-2.19 2.19c-.84 1.34-1.7 2.76-2.58 4.29-.76-2.72-1.98-5.72-1.22-8.22z" fill="url(#n)"/><path d="m92.59 55.81c1.1-2.18 2.4-4.62 3.82-7.11.06.42.16.82.34 1.19.43 3 .5 6.34-.05 9.46-.77 1.54-1.53 3.15-2.3 4.81-.44.97-1.4 1.54-2.4 1.54-.03 0-.06-.01-.09-.01 1.14-2.77.69-6.44.68-9.88z" fill="url(#o)"/><path d="m90.92 65.47c-1.32-.61-1.91-2.17-1.3-3.49.68-1.48 1.7-3.65 2.97-6.17.01 3.43.46 7.1-.67 9.89-.33-.01-.68-.08-1-.23z" fill="url(#p)"/><path d="m9.16 59.68 14.72 46.99c5.56 15.01 16.72 16.75 41.76 17s38.99-4.88 41.34-15.84l13.79-47.96s-26.06 6.8-54.6 6.77c-28.61-.03-57.15-7.1-57.01-6.96z" fill="#fa9923"/><g opacity=".78"><path d="m114.01 66.48c.05-.01.09-.02.14-.03-.17-.02-.36-.02-.57 0 0 .05 0 .11-.01.17.15-.06.29-.1.44-.14z" fill="#fff"/><path d="m114.97 67.4c.12-.05.25-.09.37-.13.05-.01.11-.03.16-.04.12-.64-.37-.98-1.35-.79.61.09.91.44.82.96z" fill="#fff"/><path d="m118.57 67.5c-.33.47-2.31 1.16-8.29 2.53.46-1.66.69-2.49 1.15-4.16 6.07-1.31 8.07-1.94 8.24-2.18-.44 1.52-.66 2.28-1.1 3.81z" fill="url(#r)"/><path d="m19.12 69.33c-5.71-1.44-7.6-2.18-7.85-2.92-.42-1.35-.63-2.02-1.05-3.37.1.35 2.04.98 7.92 2.3.39 1.6.59 2.4.98 3.99z" fill="url(#t)"/><path d="m37.82 68.76c-9.3-1.51-18.67-2.65-27.6-5.72-.42-1.35-.63-2.02-1.05-3.37 9.41 2.01 18.76 3.5 28.3 4.97.13 1.65.2 2.47.35 4.12z" fill="url(#v)"/><path d="m119.66 63.69c-9.38 2.84-18.92 4.05-28.63 5.53.31-1.67.46-2.5.77-4.17 9.8-1.47 19.35-2.89 28.96-5.17-.44 1.52-.66 2.28-1.1 3.81z" fill="url(#w)"/><path d="m37.46 64.64c18.41 1.97 35.92 2.15 54.34.4-.31 1.67-.46 2.5-.77 4.17-17.93 1.67-35.31 1.82-53.22-.45-.14-1.65-.21-2.47-.35-4.12z" fill="url(#x)"/><path d="m63.56 74.81c-15.03-.75-29.77-1.92-44.44-5.48-.39-1.6-.59-2.4-.98-4 15.14 3.31 30.26 4.62 45.72 5.38-.12 1.65-.18 2.46-.3 4.1z" fill="url(#y)"/><path d="m110.27 70.02c-15.36 3.54-31 4.51-46.71 4.79.12-1.64.18-2.45.3-4.09 16.01-.31 31.89-1.42 47.57-4.85-.46 1.66-.7 2.49-1.16 4.15z" fill="url(#z)"/><path d="m21.78 66.11c.35 1.62.52 2.43.87 4.06-2.86-.63-4.11-.95-6.16-1.54-.42-1.57-.64-2.35-1.06-3.92 2.11.51 3.4.81 6.35 1.4z" fill="url(#A)"/><path d="m69.49 70.71-.4 4.1c-4.8.07-7.1.03-11.63-.18.07-1.64.1-2.46.17-4.09 4.64.2 6.98.25 11.86.17z" fill="url(#B)"/><path d="m114.21 65.24c-.48 1.65-.71 2.47-1.19 4.12-2.14.54-3.46.85-6.46 1.45.44-1.67.65-2.51 1.09-4.18 3.06-.59 4.4-.88 6.56-1.39z" fill="url(#C)"/><path d="m97.35 64.32c-.35 1.67-.52 2.51-.87 4.18-3.94.56-6.07.83-10.52 1.25.27-1.66.4-2.49.67-4.15 4.53-.44 6.71-.71 10.72-1.28z" fill="url(#D)"/><path d="m43.2 65.32c.08 1.64.12 2.47.19 4.11-4.29-.47-6.36-.74-10.19-1.32-.2-1.65-.3-2.47-.5-4.12 3.95.58 6.08.86 10.5 1.33z" fill="url(#E)"/><g fill="#c7b299"><path d="m10.22 63.04c8.93 3.07 18.3 4.21 27.6 5.72 0 0-11.22-1.16-19.52-3.03-8.3-1.88-8.08-2.69-8.08-2.69z"/><path d="m37.82 68.76c17.91 2.27 35.29 2.12 53.22.45 0 0-11.64 2.08-27.08 1.89-15.45-.19-26.14-2.34-26.14-2.34z"/><path d="m91.04 69.22c9.7-1.47 19.25-2.69 28.63-5.53 0 0 .25.71-8.27 2.55-8.53 1.85-20.36 2.98-20.36 2.98z"/><path d="m17.15 61.34c15.61 3.02 31.12 4.6 47 5.28 0 0-12.76.18-26.55-1.59-13.78-1.75-20.45-3.69-20.45-3.69z"/><path d="m43.39 69.42c-.08-1.64-.11-2.46-.19-4.09 0 0 .3.91.35 2.06.05 1.16-.16 2.03-.16 2.03z"/><path d="m69.1 74.8c.16-1.63.24-2.45.4-4.08 0 0 .2.88.09 2.03-.12 1.14-.49 2.05-.49 2.05z"/><path d="m96.48 68.5c.35-1.67.52-2.5.87-4.16 0 0 .05.86-.2 2.04-.24 1.17-.67 2.12-.67 2.12z"/><path d="m113.03 69.35c.47-1.64.71-2.46 1.19-4.1 0 0-.13.86-.46 2.01-.35 1.16-.73 2.09-.73 2.09z"/><path d="m22.65 70.16c-.35-1.61-.52-2.42-.87-4.04 0 0 .36.91.6 2.04.25 1.15.27 2 .27 2z"/><path d="m10.65 63.3c-.44-1.42-.66-2.13-1.11-3.55 0 0 .28.77.59 1.78.31 1 .52 1.77.52 1.77z"/><path d="m57.64 70.55c-.07 1.63-.1 2.44-.17 4.07 0 0-.23-.89-.18-2.04.04-1.15.35-2.03.35-2.03z"/><path d="m86.63 65.62c-.27 1.65-.4 2.48-.67 4.13 0 0-.12-.87.07-2.03.19-1.17.6-2.1.6-2.1z"/><path d="m32.7 64 .5 4.1s-.33-.92-.48-2.07c-.14-1.16-.02-2.03-.02-2.03z"/><path d="m120.35 59.99c-.46 1.56-.7 2.34-1.16 3.91 0 0 .21-.83.54-1.93.32-1.11.62-1.98.62-1.98z"/><path d="m107.66 66.65c-.43 1.66-.65 2.5-1.09 4.16 0 0 .06-.86.36-2.04.31-1.17.73-2.12.73-2.12z"/><path d="m15.44 64.72 1.05 3.9s-.35-.88-.64-1.97c-.3-1.1-.41-1.93-.41-1.93z"/><path d="m64.15 66.63c16.31-.35 32.43-1.59 48.43-4.92 0 0-6.57 2.02-20.74 3.71-14.16 1.7-27.69 1.21-27.69 1.21z"/></g><path d="m120.76 59.87c-.44 1.53-.66 2.29-1.1 3.81-.04.05-.13.1-.48.22.47-1.57.7-2.36 1.17-3.93.32-.07.41-.1.41-.1z" fill="url(#F)"/><path d="m9.54 59.75c.44 1.42.67 2.14 1.11 3.56-.32-.14-.42-.19-.44-.27-.42-1.35-.63-2.02-1.05-3.37-.01-.01.07.01.38.08z" fill="url(#G)"/><path d="m17.15 61.34c-6.05-1.19-8.05-1.72-7.99-1.67.04.13.06.19.1.32-.01-.01 7.89 1.35 7.89 1.35z" fill="#c7b299"/><path d="m112.58 61.71s8.06-1.45 8.08-1.48c.04-.14.06-.21.1-.36 0 0-2.01.59-8.18 1.84z" fill="#c7b299"/><path d="m111.63 74.7c.05-.01.09-.02.14-.04-.16-.01-.35-.01-.56.02 0 .05 0 .11-.01.16.15-.05.29-.1.43-.14z" fill="#fff"/><path d="m112.57 75.56c.12-.06.25-.1.37-.14.05-.02.11-.03.16-.05.12-.63-.37-.94-1.33-.71.6.06.89.38.8.9z" fill="#fff"/><path d="m116.38 75.09c-.66.94-2.61 1.74-8.41 3.21.46-1.66.69-2.48 1.15-4.14 5.89-1.42 7.86-2.16 8.35-2.87-.43 1.52-.65 2.28-1.09 3.8z" fill="url(#H)"/><path d="m21.08 77.29c-5.36-1.69-7.16-2.63-7.71-4.17l-1.05-3.35c.4 1.15 2.25 1.98 7.78 3.55.39 1.58.59 2.38.98 3.97z" fill="url(#I)"/><path d="m38.53 76.98c-17.84-2.48-25.4-4.93-26.21-7.22l-1.05-3.35c.5 1.49 8.48 3.98 26.9 6.47.15 1.64.22 2.46.36 4.1z" fill="url(#J)"/><path d="m117.48 71.3c-8.87 3.83-18.49 4.76-27.97 6.24.3-1.66.46-2.49.76-4.15 9.59-1.48 19.17-2.53 28.3-5.88-.44 1.51-.66 2.27-1.09 3.79z" fill="url(#K)"/><path d="m38.17 72.88c17.51 2.26 34.56 2.1 52.1.5-.3 1.66-.46 2.49-.76 4.15-16.88 2.13-34.14 1.67-50.98-.56-.14-1.63-.21-2.45-.36-4.09z" fill="url(#L)"/><path d="m62.97 82.95c-14.19-.71-28.18-1.62-41.88-5.67-.39-1.59-.59-2.39-.98-3.98 14.19 3.8 28.55 4.84 43.16 5.57-.13 1.64-.19 2.46-.3 4.08z" fill="url(#M)"/><path d="m107.98 78.3c-14.87 3.61-29.77 4.35-45.01 4.65.12-1.63.18-2.44.3-4.07 15.53-.35 30.68-1.2 45.86-4.72-.47 1.66-.69 2.49-1.15 4.14z" fill="url(#N)"/><path d="m23.52 74.21c.35 1.61.52 2.42.87 4.04-2.67-.7-3.85-1.07-5.78-1.81l-1.05-3.9c1.98.65 3.2 1 5.96 1.67z" fill="url(#O)"/><path d="m68.7 78.89c-.16 1.63-.24 2.45-.4 4.08-4.64.05-6.86.01-11.18-.19.07-1.63.1-2.44.17-4.07 4.43.19 6.69.24 11.41.18z" fill="url(#P)"/><path d="m111.84 73.47c-.47 1.64-.71 2.46-1.19 4.1-2.1.62-3.37.94-6.25 1.57.43-1.66.65-2.5 1.09-4.16 2.93-.62 4.23-.93 6.35-1.51z" fill="url(#Q)"/><path d="m95.61 72.69c-.35 1.67-.52 2.5-.87 4.16-3.78.54-5.83.79-10.12 1.19.27-1.65.4-2.48.67-4.13 4.37-.41 6.46-.67 10.32-1.22z" fill="url(#R)"/><path d="m43.58 73.54c.08 1.64.11 2.46.19 4.09-4.05-.45-5.98-.72-9.57-1.31l-.5-4.1c3.71.59 5.71.86 9.88 1.32z" fill="url(#S)"/><path d="m12.32 69.76c.81 2.29 8.37 4.74 26.21 7.22 0 0-10.47-1.05-18.27-3.28-7.81-2.23-7.94-3.94-7.94-3.94z" fill="#c7b299"/><path d="m38.53 76.98c16.84 2.22 34.09 2.68 50.98.56 0 0-11.27 1.94-26.15 1.73-14.89-.22-24.83-2.29-24.83-2.29z" fill="#c7b299"/><path d="m89.51 77.53c9.48-1.48 19.1-2.4 27.97-6.24 0 0-.13 1.23-8.39 3.24-8.27 2.01-19.58 3-19.58 3z" fill="#c7b299"/><path d="m19.12 69.33c14.67 3.56 29.4 4.73 44.44 5.48 0 0-12.28.22-25.24-1.53s-19.2-3.95-19.2-3.95z" fill="#c7b299"/><path d="m43.77 77.63c-.08-1.63-.11-2.44-.19-4.07 0 0 .28.91.33 2.05.06 1.14-.14 2.02-.14 2.02z" fill="#c7b299"/><path d="m68.31 82.96c.16-1.62.24-2.44.39-4.06 0 0 .19.87.08 2.02-.11 1.14-.47 2.04-.47 2.04z" fill="#c7b299"/><path d="m94.74 76.84c.35-1.66.52-2.49.86-4.14 0 0 .04.86-.21 2.03-.23 1.17-.65 2.11-.65 2.11z" fill="#c7b299"/><path d="m110.66 77.56c.47-1.63.71-2.45 1.18-4.09 0 0-.13.85-.46 2-.34 1.16-.72 2.09-.72 2.09z" fill="#c7b299"/><path d="m24.39 78.23c-.35-1.61-.52-2.41-.86-4.02 0 0 .35.91.59 2.04.24 1.14.27 1.98.27 1.98z" fill="#c7b299"/><path d="m12.87 70.41c-.44-1.41-.66-2.12-1.1-3.53 0 0 .28.79.59 1.78.31 1 .51 1.75.51 1.75z" fill="#c7b299"/><path d="m57.29 78.71c-.07 1.62-.1 2.43-.17 4.05 0 0-.22-.89-.17-2.03s.34-2.02.34-2.02z" fill="#c7b299"/><path d="m85.29 73.92c-.26 1.65-.4 2.47-.66 4.11 0 0-.11-.86.08-2.02.18-1.16.58-2.09.58-2.09z" fill="#c7b299"/><path d="m33.7 72.24c.2 1.63.3 2.45.5 4.08 0 0-.32-.91-.46-2.06-.14-1.16-.04-2.02-.04-2.02z" fill="#c7b299"/><path d="m118.02 67.84c-.46 1.56-.69 2.33-1.16 3.89 0 0 .2-.82.53-1.91.33-1.1.63-1.98.63-1.98z" fill="#c7b299"/><path d="m105.48 74.99c-.43 1.66-.65 2.49-1.08 4.14 0 0 .06-.86.37-2.03.3-1.16.71-2.11.71-2.11z" fill="#c7b299"/><path d="m17.56 72.54c.42 1.55.63 2.33 1.05 3.89 0 0-.34-.88-.64-1.97-.3-1.1-.41-1.92-.41-1.92z" fill="#c7b299"/><path d="m63.56 74.81c15.71-.28 31.36-1.24 46.71-4.79 0 0-6.33 2.13-19.96 3.73-13.63 1.62-26.75 1.06-26.75 1.06z" fill="#c7b299"/><path d="m118.57 67.5c-.44 1.52-.65 2.28-1.09 3.8-.11.15-.23.24-.62.44.46-1.56.7-2.35 1.16-3.91.36-.16.48-.23.55-.33z" fill="url(#T)"/><path d="m11.76 66.87c.44 1.42.66 2.13 1.11 3.55-.35-.28-.47-.41-.55-.66l-1.05-3.35c.05.16.16.25.49.46z" fill="url(#U)"/><path d="m19.12 69.33c-5.71-1.44-7.6-2.18-7.85-2.92.04.13.06.19.1.31v.01c.42 1.12 7.75 2.6 7.75 2.6z" fill="#c7b299"/><path d="m110.27 70.02s7.71-1.48 8.19-2.17c.04-.14.06-.21.1-.36-.32.48-2.3 1.17-8.29 2.53z" fill="#c7b299"/><path d="m109.26 82.9c.05-.01.09-.03.13-.04-.16-.01-.34 0-.54.04 0 .05 0 .11-.01.16.14-.06.28-.11.42-.16z" fill="#fff"/><path d="m110.18 83.71c.12-.06.24-.12.36-.16.05-.02.1-.04.15-.05.12-.63-.37-.9-1.3-.63.59.02.87.33.79.84z" fill="#fff"/><path d="m114.2 82.68c-.99 1.41-2.91 2.31-8.52 3.9.46-1.66.69-2.48 1.15-4.14 5.71-1.53 7.64-2.38 8.47-3.55-.44 1.52-.66 2.27-1.1 3.79z" fill="url(#V)"/><path d="m23.04 85.24c-5.01-1.95-6.71-3.09-7.57-5.42l-1.05-3.35c.71 1.94 2.46 2.98 7.64 4.8.39 1.59.59 2.38.98 3.97z" fill="url(#W)"/><path d="m39.24 85.18c-16.68-2.46-23.41-4.83-24.82-8.71l-1.05-3.35c1.11 3.09 8.25 5.49 25.52 7.96.14 1.64.21 2.46.35 4.1z" fill="url(#X)"/><path d="m115.29 78.89c-8.37 4.69-17.97 5.45-27.31 6.95.3-1.66.46-2.49.76-4.15 9.39-1.48 19.03-2.32 27.64-6.59-.43 1.51-.65 2.27-1.09 3.79z" fill="url(#Y)"/><path d="m38.89 81.08c16.44 2.21 33.37 2.66 49.86.61-.3 1.66-.46 2.49-.76 4.15-16.1 1.98-32.7 1.55-48.74-.66-.15-1.64-.22-2.46-.36-4.1z" fill="url(#Z)"/><path d="m62.37 91.1c-13.34-.68-26.63-1.33-39.33-5.85-.39-1.59-.59-2.39-.98-3.98 13.21 4.29 26.84 5.06 40.61 5.76-.12 1.63-.18 2.44-.3 4.07z" fill="url(#aa)"/><path d="m105.68 86.58c-14.26 3.78-28.64 4.29-43.31 4.52.12-1.63.18-2.44.3-4.07 14.95-.27 29.59-.89 44.16-4.59-.46 1.66-.69 2.48-1.15 4.14z" fill="url(#ab)"/><path d="m25.26 82.28c.35 1.61.52 2.42.87 4.04-2.48-.77-3.58-1.19-5.41-2.07l-1.05-3.9c1.87.8 3.01 1.19 5.59 1.93z" fill="url(#ac)"/><path d="m67.91 87.05c-.16 1.63-.24 2.45-.4 4.08-4.49.03-6.61-.01-10.74-.21.07-1.63.1-2.44.17-4.07 4.24.19 6.41.24 10.97.2z" fill="url(#ad)"/><path d="m109.47 81.68c-.47 1.64-.71 2.46-1.19 4.1-2.05.69-3.28 1.03-6.05 1.68.43-1.66.65-2.5 1.09-4.16 2.82-.64 4.07-.97 6.15-1.62z" fill="url(#ae)"/><path d="m93.87 81.02c-.35 1.67-.52 2.5-.87 4.16-3.63.53-5.59.76-9.71 1.13.27-1.65.4-2.48.67-4.13 4.2-.38 6.21-.63 9.91-1.16z" fill="url(#af)"/><path d="m43.96 81.73c.08 1.64.11 2.46.19 4.09-3.8-.44-5.61-.71-8.95-1.3l-.5-4.1c3.47.59 5.34.86 9.26 1.31z" fill="url(#ag)"/><path d="m14.42 76.47c1.42 3.88 8.14 6.25 24.82 8.71 0 0-9.72-.94-17.03-3.52s-7.79-5.19-7.79-5.19z" fill="#c7b299"/><path d="m39.24 85.18c16.05 2.21 32.64 2.64 48.74.66 0 0-10.89 1.81-25.23 1.58-14.33-.24-23.51-2.24-23.51-2.24z" fill="#c7b299"/><path d="m87.99 85.83c9.34-1.5 18.94-2.26 27.31-6.95 0 0-.5 1.76-8.51 3.92s-18.8 3.03-18.8 3.03z" fill="#c7b299"/><path d="m21.08 77.29c13.7 4.05 27.69 4.95 41.88 5.67 0 0-11.8.26-23.95-1.48-12.14-1.74-17.93-4.19-17.93-4.19z" fill="#c7b299"/><path d="m44.15 85.81c-.08-1.63-.11-2.44-.19-4.07 0 0 .27.9.32 2.05s-.13 2.02-.13 2.02z" fill="#c7b299"/><path d="m67.52 91.12c.16-1.62.24-2.44.39-4.06 0 0 .18.87.07 2.02-.11 1.14-.46 2.04-.46 2.04z" fill="#c7b299"/><path d="m93.01 85.17c.35-1.66.52-2.49.86-4.14 0 0 .03.86-.22 2.03s-.64 2.11-.64 2.11z" fill="#c7b299"/><path d="m108.28 85.77c.47-1.63.71-2.45 1.18-4.09 0 0-.13.84-.47 1.99-.33 1.16-.71 2.1-.71 2.1z" fill="#c7b299"/><path d="m26.12 86.31c-.35-1.61-.52-2.41-.86-4.02 0 0 .34.91.58 2.04.24 1.14.28 1.98.28 1.98z" fill="#c7b299"/><path d="m15.08 77.5c-.44-1.41-.66-2.12-1.1-3.53 0 0 .28.8.59 1.8.32 1 .51 1.73.51 1.73z" fill="#c7b299"/><path d="m56.95 86.86c-.07 1.62-.1 2.43-.17 4.05 0 0-.21-.89-.16-2.03s.33-2.02.33-2.02z" fill="#c7b299"/><path d="m83.96 82.19c-.26 1.65-.4 2.47-.66 4.11 0 0-.1-.87.09-2.03.18-1.15.57-2.08.57-2.08z" fill="#c7b299"/><path d="m34.7 80.43c.2 1.63.3 2.45.5 4.08 0 0-.3-.91-.45-2.06-.14-1.15-.05-2.02-.05-2.02z" fill="#c7b299"/><path d="m115.7 75.66c-.46 1.56-.69 2.33-1.16 3.89 0 0 .2-.81.53-1.91.32-1.1.63-1.98.63-1.98z" fill="#c7b299"/><path d="m103.31 83.31c-.43 1.66-.65 2.49-1.08 4.14 0 0 .07-.86.37-2.02.31-1.17.71-2.12.71-2.12z" fill="#c7b299"/><path d="m19.67 80.35c.42 1.55.63 2.33 1.05 3.89 0 0-.33-.89-.63-1.98-.3-1.1-.42-1.91-.42-1.91z" fill="#c7b299"/><path d="m62.97 82.95c15.24-.31 30.14-1.04 45.01-4.65 0 0-6.1 2.23-19.19 3.76-13.1 1.52-25.82.89-25.82.89z" fill="#c7b299"/><path d="m116.38 75.09c-.44 1.52-.65 2.28-1.09 3.8-.18.25-.33.39-.76.67.46-1.56.7-2.35 1.16-3.91.41-.24.55-.36.69-.56z" fill="url(#ah)"/><path d="m13.98 73.96c.44 1.42.66 2.13 1.11 3.55-.38-.42-.52-.63-.67-1.04l-1.05-3.35c.12.33.24.5.61.84z" fill="url(#ai)"/><path d="m21.08 77.29c-5.36-1.69-7.16-2.63-7.71-4.17.04.13.06.19.1.31 0 .01 0 .01.01.02.83 2.23 7.6 3.84 7.6 3.84z" fill="#c7b299"/><path d="m107.98 78.3s7.36-1.5 8.31-2.85c.04-.14.06-.21.1-.36-.66.94-2.62 1.74-8.41 3.21z" fill="#c7b299"/><path d="m106.88 91.11c.04-.02.09-.03.13-.05-.16 0-.33.02-.53.06 0 .05 0 .1-.01.16.14-.07.28-.12.41-.17z" fill="#fff"/><path d="m107.78 91.86c.12-.07.24-.13.36-.18l.15-.06c.13-.62-.36-.86-1.28-.56.58.01.86.29.77.8z" fill="#fff"/><path d="m112.02 90.28c-1.32 1.88-3.21 2.89-8.64 4.58.46-1.66.69-2.48 1.15-4.14 5.52-1.64 7.43-2.59 8.58-4.24-.44 1.52-.65 2.28-1.09 3.8z" fill="url(#aj)"/><path d="m25 93.2c-4.66-2.2-6.26-3.54-7.43-6.67l-1.05-3.35c1.01 2.74 2.66 3.98 7.5 6.05.39 1.58.59 2.38.98 3.97z" fill="url(#ak)"/><path d="m39.95 93.38c-15.52-2.44-21.41-4.73-23.44-10.2l-1.05-3.35c1.72 4.68 8.03 7.01 24.13 9.46.15 1.63.22 2.45.36 4.09z" fill="url(#al)"/><path d="m113.11 86.48c-7.92 5.45-17.35 6.12-26.65 7.65.3-1.66.46-2.49.76-4.15 9.31-1.51 18.84-2.22 26.98-7.3-.43 1.52-.65 2.28-1.09 3.8z" fill="url(#am)"/><path d="m39.6 89.28c15.65 2.2 31.91 2.62 47.63.71-.3 1.66-.46 2.49-.76 4.15-15.32 1.84-31.25 1.44-46.51-.76-.15-1.64-.22-2.46-.36-4.1z" fill="url(#an)"/><path d="m61.78 99.24c-12.48-.64-25.11-1.05-36.78-6.04-.39-1.59-.59-2.39-.98-3.98 12.19 4.76 25.15 5.29 38.06 5.95-.12 1.63-.18 2.44-.3 4.07z" fill="url(#ao)"/><path d="m103.38 94.86c-13.63 3.95-27.52 4.24-41.6 4.39.12-1.63.18-2.44.3-4.07 14.37-.19 28.51-.59 42.45-4.45-.46 1.64-.69 2.47-1.15 4.13z" fill="url(#ap)"/><path d="m26.99 90.35c.35 1.61.52 2.42.87 4.04-2.3-.85-3.31-1.31-5.03-2.34l-1.05-3.9c1.77.95 2.82 1.39 5.21 2.2z" fill="url(#aq)"/><path d="m67.12 95.21c-.16 1.63-.24 2.45-.4 4.08-4.33.01-6.37-.04-10.29-.22.07-1.63.1-2.44.17-4.07 4.03.18 6.11.22 10.52.21z" fill="url(#ar)"/><path d="m107.1 89.89c-.47 1.64-.71 2.46-1.19 4.1-2.01.76-3.19 1.13-5.85 1.8.43-1.66.65-2.5 1.09-4.16 2.71-.66 3.92-1.02 5.95-1.74z" fill="url(#as)"/><path d="m92.14 89.35c-.35 1.67-.52 2.5-.87 4.16-3.47.51-5.35.73-9.31 1.07.27-1.65.4-2.48.67-4.13 4.04-.36 5.96-.59 9.51-1.1z" fill="url(#at)"/><path d="m44.34 89.92c.08 1.64.11 2.46.19 4.09-3.55-.43-5.23-.69-8.33-1.29l-.5-4.1c3.22.6 4.97.86 8.64 1.3z" fill="url(#au)"/><path d="m16.52 83.17c2.03 5.47 7.91 7.76 23.44 10.2 0 0-8.97-.83-15.79-3.76s-7.65-6.44-7.65-6.44z" fill="#c7b299"/><path d="m39.95 93.38c15.25 2.2 31.18 2.6 46.51.76 0 0-10.52 1.67-24.3 1.42-13.78-.26-22.21-2.18-22.21-2.18z" fill="#c7b299"/><path d="m86.46 94.13c9.3-1.53 18.73-2.21 26.65-7.65 0 0-.88 2.29-8.62 4.61s-18.03 3.04-18.03 3.04z" fill="#c7b299"/><path d="m23.04 85.24c12.71 4.53 26 5.17 39.33 5.85 0 0-11.32.3-22.65-1.43-11.32-1.71-16.68-4.42-16.68-4.42z" fill="#c7b299"/><path d="m44.53 94c-.08-1.63-.11-2.44-.19-4.07 0 0 .25.9.31 2.05.05 1.15-.12 2.02-.12 2.02z" fill="#c7b299"/><path d="m66.73 99.28c.16-1.62.24-2.44.39-4.06 0 0 .17.87.06 2.02-.11 1.14-.45 2.04-.45 2.04z" fill="#c7b299"/><path d="m91.27 93.5c.35-1.66.52-2.49.86-4.14 0 0 .02.86-.23 2.03-.24 1.17-.63 2.11-.63 2.11z" fill="#c7b299"/><path d="m105.91 93.98c.47-1.63.71-2.45 1.18-4.09 0 0-.14.84-.47 1.99s-.71 2.1-.71 2.1z" fill="#c7b299"/><path d="m27.86 94.38c-.35-1.61-.52-2.41-.86-4.02 0 0 .32.91.57 2.05.23 1.13.29 1.97.29 1.97z" fill="#c7b299"/><path d="m17.3 84.59c-.44-1.41-.66-2.12-1.1-3.53 0 0 .28.82.6 1.82s.5 1.71.5 1.71z" fill="#c7b299"/><path d="m56.6 95c-.07 1.62-.1 2.43-.17 4.05 0 0-.19-.89-.15-2.03.05-1.13.32-2.02.32-2.02z" fill="#c7b299"/><path d="m82.63 90.45c-.26 1.65-.4 2.47-.66 4.11 0 0-.09-.87.1-2.03.18-1.15.56-2.08.56-2.08z" fill="#c7b299"/><path d="m35.7 88.63c.2 1.63.3 2.45.5 4.08 0 0-.29-.91-.43-2.06-.14-1.16-.07-2.02-.07-2.02z" fill="#c7b299"/><path d="m113.37 83.48c-.46 1.56-.69 2.33-1.16 3.89 0 0 .19-.8.52-1.9.34-1.1.64-1.99.64-1.99z" fill="#c7b299"/><path d="m101.14 91.64c-.43 1.66-.65 2.49-1.08 4.14 0 0 .08-.85.38-2.02s.7-2.12.7-2.12z" fill="#c7b299"/><path d="m21.77 88.16c.42 1.55.63 2.33 1.05 3.89 0 0-.33-.9-.62-1.99-.3-1.1-.43-1.9-.43-1.9z" fill="#c7b299"/><path d="m62.37 91.1c14.66-.23 29.05-.74 43.31-4.52 0 0-5.87 2.34-18.42 3.78-12.56 1.44-24.89.74-24.89.74z" fill="#c7b299"/><path d="m114.2 82.68c-.44 1.52-.65 2.28-1.09 3.8-.25.35-.43.53-.89.9.46-1.56.7-2.35 1.16-3.91.44-.33.61-.48.82-.79z" fill="url(#av)"/><path d="m16.19 81.06c.44 1.42.66 2.13 1.11 3.55-.41-.56-.57-.85-.78-1.43l-1.05-3.35c.18.49.33.74.72 1.23z" fill="url(#aw)"/><path d="m23.04 85.24c-5.01-1.95-6.71-3.09-7.57-5.42.04.13.06.19.1.31 0 .01.01.02.01.03 1.26 3.35 7.46 5.08 7.46 5.08z" fill="#c7b299"/><path d="m105.68 86.58s7.01-1.53 8.42-3.54c.04-.14.06-.21.1-.36-.99 1.42-2.91 2.32-8.52 3.9z" fill="#c7b299"/><path d="m104.51 99.31c.04-.02.09-.03.13-.05-.15.01-.33.03-.52.08 0 .05 0 .1-.01.16.13-.07.27-.14.4-.19z" fill="#fff"/><path d="m105.39 100.01c.12-.07.24-.14.35-.2.05-.03.1-.05.15-.07.13-.62-.36-.82-1.26-.48.57-.02.84.24.76.75z" fill="#fff"/><path d="m109.84 97.87c-1.65 2.35-3.51 3.47-8.75 5.27.46-1.66.69-2.48 1.15-4.14 5.34-1.75 7.21-2.81 8.69-4.92-.44 1.51-.66 2.27-1.09 3.79z" fill="url(#ax)"/><path d="m26.96 101.15c-4.32-2.45-5.82-3.99-7.29-7.92l-1.05-3.35c1.32 3.53 2.87 4.98 7.36 7.3.39 1.59.59 2.38.98 3.97z" fill="url(#ay)"/><path d="m40.67 101.57c-14.36-2.42-19.41-4.63-22.05-11.7l-1.05-3.35c2.33 6.27 7.8 8.52 22.74 10.95.14 1.65.21 2.47.36 4.1z" fill="url(#az)"/><path d="m110.93 94.07c-2.96 4.24-9.27 6.5-25.99 8.36.3-1.66.46-2.49.76-4.15 9.31-1.56 18.6-2.22 26.32-8.01-.44 1.52-.66 2.28-1.09 3.8z" fill="url(#aA)"/><path d="m40.31 97.48c15.15 2.31 30.16 1.9 45.39.81-.3 1.66-.46 2.49-.76 4.15-14.84 1.03-29.51 1.44-44.27-.86-.15-1.64-.22-2.46-.36-4.1z" fill="url(#aB)"/><path d="m61.19 107.39c-11.61-.61-23.63-.78-34.23-6.23-.39-1.59-.59-2.39-.98-3.98 11.14 5.23 23.46 5.51 35.5 6.14-.12 1.63-.18 2.44-.29 4.07z" fill="url(#aC)"/><path d="m101.08 103.13c-13 4.12-26.4 4.18-39.9 4.25.12-1.63.18-2.44.3-4.07 13.79-.11 27.43-.28 40.75-4.32-.46 1.66-.69 2.49-1.15 4.14z" fill="url(#aD)"/><path d="m28.73 98.43c.35 1.61.52 2.42.87 4.04-2.11-.92-3.04-1.44-4.66-2.6l-1.05-3.9c1.66 1.08 2.63 1.57 4.84 2.46z" fill="url(#aE)"/><path d="m66.33 103.37c-.16 1.63-.24 2.45-.4 4.08-4.17-.01-6.13-.06-9.85-.23.07-1.63.1-2.44.17-4.07 3.83.17 5.83.21 10.08.22z" fill="url(#aF)"/><path d="m104.73 98.09c-.47 1.64-.71 2.46-1.19 4.1-1.96.83-3.1 1.22-5.65 1.91.43-1.66.65-2.5 1.09-4.16 2.6-.67 3.76-1.05 5.75-1.85z" fill="url(#aG)"/><path d="m90.4 97.67c-.35 1.67-.52 2.5-.87 4.16-3.31.49-5.11.7-8.9 1.01.27-1.65.4-2.48.67-4.13 3.87-.32 5.71-.53 9.1-1.04z" fill="url(#aH)"/><path d="m44.73 98.1c.08 1.64.11 2.46.19 4.09-3.31-.42-4.86-.67-7.72-1.28l-.5-4.1c2.98.61 4.6.87 8.03 1.29z" fill="url(#aI)"/><path d="m18.62 89.88c2.64 7.07 7.69 9.28 22.05 11.7 0 0-8.22-.72-14.55-4-6.33-3.29-7.5-7.7-7.5-7.7z" fill="#c7b299"/><path d="m40.67 101.57c14.76 2.3 29.43 1.89 44.27.86 0 0-10.15 1.54-23.38 1.27-13.22-.27-20.89-2.13-20.89-2.13z" fill="#c7b299"/><path d="m84.94 102.43c16.72-1.86 23.02-4.13 25.99-8.36 0 0-1.25 2.82-8.74 5.29-7.49 2.48-17.25 3.07-17.25 3.07z" fill="#c7b299"/><path d="m25 93.2c11.67 5 24.3 5.4 36.78 6.04 0 0-10.84.34-21.35-1.37s-15.43-4.67-15.43-4.67z" fill="#c7b299"/><path d="m44.92 102.19c-.08-1.63-.11-2.44-.19-4.07 0 0 .24.9.29 2.05.05 1.14-.1 2.02-.1 2.02z" fill="#c7b299"/><path d="m65.93 107.44c.16-1.62.24-2.44.39-4.06 0 0 .16.88.05 2.02-.1 1.14-.44 2.04-.44 2.04z" fill="#c7b299"/><path d="m89.53 101.83c.35-1.66.52-2.49.86-4.14 0 0 .01.86-.23 2.03s-.63 2.11-.63 2.11z" fill="#c7b299"/><path d="m103.54 102.19c.47-1.63.71-2.45 1.18-4.09 0 0-.14.83-.47 1.99-.33 1.15-.71 2.1-.71 2.1z" fill="#c7b299"/><path d="m29.59 102.45c-.35-1.61-.52-2.41-.86-4.02 0 0 .31.92.56 2.05.24 1.14.3 1.97.3 1.97z" fill="#c7b299"/><path d="m19.51 91.69c-.44-1.41-.66-2.12-1.1-3.53 0 0 .29.84.6 1.83.31 1 .5 1.7.5 1.7z" fill="#c7b299"/><path d="m56.26 103.15c-.07 1.62-.1 2.43-.17 4.05 0 0-.18-.88-.13-2.03.04-1.14.3-2.02.3-2.02z" fill="#c7b299"/><path d="m81.3 98.72c-.26 1.65-.4 2.47-.66 4.11 0 0-.08-.87.11-2.03.17-1.15.55-2.08.55-2.08z" fill="#c7b299"/><path d="m36.7 96.83c.2 1.63.3 2.45.5 4.08 0 0-.28-.92-.42-2.07s-.08-2.01-.08-2.01z" fill="#c7b299"/><path d="m111.05 91.29c-.46 1.56-.69 2.33-1.16 3.89 0 0 .19-.79.52-1.89.33-1.09.64-2 .64-2z" fill="#c7b299"/><path d="m98.97 99.96c-.43 1.66-.65 2.49-1.08 4.14 0 0 .08-.85.39-2.02.3-1.17.69-2.12.69-2.12z" fill="#c7b299"/><path d="m23.88 95.97c.42 1.55.63 2.33 1.05 3.89 0 0-.32-.91-.62-2-.29-1.1-.43-1.89-.43-1.89z" fill="#c7b299"/><path d="m61.78 99.24c14.08-.15 27.97-.43 41.6-4.39 0 0-5.64 2.45-17.65 3.8s-23.95.59-23.95.59z" fill="#c7b299"/><path d="m112.02 90.28c-.44 1.52-.65 2.28-1.09 3.8-.32.45-.53.68-1.03 1.12.46-1.56.7-2.35 1.16-3.91.48-.41.68-.61.96-1.01z" fill="url(#aJ)"/><path d="m18.41 88.15c.44 1.42.66 2.13 1.11 3.55-.44-.7-.62-1.06-.9-1.82l-1.05-3.35c.25.67.42.99.84 1.62z" fill="url(#aK)"/><path d="m25 93.2c-4.66-2.2-6.26-3.54-7.43-6.67.04.13.06.19.1.31 0 .01.01.02.01.04 1.69 4.46 7.32 6.32 7.32 6.32z" fill="#c7b299"/><path d="m103.38 94.86s6.66-1.55 8.54-4.23c.04-.14.06-.21.1-.36-1.32 1.89-3.21 2.9-8.64 4.59z" fill="#c7b299"/><path d="m102.13 107.51c.04-.02.08-.04.13-.06-.15.01-.32.04-.51.1 0 .05 0 .1-.01.16.13-.07.26-.14.39-.2z" fill="#fff"/><path d="m102.99 108.16c.12-.08.23-.15.35-.21.05-.03.1-.05.15-.08.13-.62-.35-.78-1.23-.41.55-.05.82.2.73.7z" fill="#fff"/><path d="m107.65 105.46c-1.98 2.82-3.81 4.04-8.87 5.95.46-1.66.69-2.48 1.15-4.14 5.15-1.86 7-3.02 8.81-5.61-.43 1.52-.65 2.28-1.09 3.8z" fill="url(#aL)"/><path d="m28.92 109.11c-3.97-2.7-5.37-4.45-7.15-9.18l-1.05-3.35c1.62 4.33 3.08 5.98 7.22 8.55.39 1.59.58 2.39.98 3.98z" fill="url(#aM)"/><path d="m41.38 109.77c-13.2-2.4-17.42-4.54-20.66-13.19l-1.05-3.35c2.94 7.86 7.57 10.03 21.35 12.45.15 1.63.22 2.45.36 4.09z" fill="url(#aN)"/><path d="m108.74 101.66c-3.62 5.18-9.37 7.33-25.33 9.07.3-1.66.46-2.49.76-4.15 16.34-1.8 22.37-4.01 25.66-8.72-.43 1.53-.65 2.28-1.09 3.8z" fill="url(#aO)"/><path d="m41.02 105.67c14.37 2.29 28.7 1.88 43.15.91-.3 1.66-.46 2.49-.76 4.15-14.06.91-28.06 1.32-42.04-.96-.13-1.64-.2-2.46-.35-4.1z" fill="url(#aP)"/><path d="m60.59 115.53c-10.43-.67-22.41-.55-31.68-6.42-.39-1.59-.59-2.39-.98-3.98 9.84 5.68 22.06 5.64 32.95 6.33-.11 1.63-.17 2.44-.29 4.07z" fill="url(#aQ)"/><path d="m98.79 111.41c-12.36 4.29-25.29 4.13-38.19 4.12.12-1.63.18-2.44.3-4.07 13.2-.03 26.36.02 39.05-4.19-.47 1.66-.7 2.49-1.16 4.14z" fill="url(#aR)"/><path d="m30.46 106.5c.35 1.61.52 2.42.87 4.04-1.92-.99-2.78-1.56-4.28-2.87l-1.05-3.9c1.55 1.23 2.44 1.78 4.46 2.73z" fill="url(#aS)"/><path d="m65.54 111.53c-.16 1.63-.24 2.45-.4 4.08-4.01-.04-5.88-.08-9.4-.25.07-1.63.1-2.44.17-4.07 3.62.17 5.54.21 9.63.24z" fill="url(#aT)"/><path d="m102.36 106.3c-.47 1.64-.71 2.46-1.19 4.1-1.91.9-3.01 1.31-5.45 2.03.43-1.66.65-2.5 1.09-4.16 2.49-.7 3.61-1.1 5.55-1.97z" fill="url(#aU)"/><path d="m88.66 106c-.35 1.67-.52 2.5-.87 4.16-3.16.48-4.86.67-8.49.94.27-1.65.4-2.48.67-4.13 3.71-.28 5.46-.48 8.69-.97z" fill="url(#aV)"/><path d="m45.11 106.29c.08 1.64.11 2.46.19 4.09-3.06-.4-4.48-.65-7.1-1.27l-.5-4.1c2.74.62 4.22.87 7.41 1.28z" fill="url(#aW)"/><path d="m20.72 96.58c3.24 8.66 7.46 10.79 20.66 13.19 0 0-7.47-.6-13.3-4.24-5.84-3.63-7.36-8.95-7.36-8.95z" fill="#c7b299"/><path d="m41.38 109.77c13.97 2.28 27.97 1.87 42.04.96 0 0-9.78 1.4-22.45 1.11-12.68-.29-19.59-2.07-19.59-2.07z" fill="#c7b299"/><path d="m83.42 110.73c15.96-1.74 21.71-3.89 25.33-9.07 0 0-1.63 3.34-8.86 5.98-7.23 2.63-16.47 3.09-16.47 3.09z" fill="#c7b299"/><path d="m26.96 101.15c10.6 5.45 22.62 5.62 34.23 6.23 0 0-10.36.38-20.05-1.32s-14.18-4.91-14.18-4.91z" fill="#c7b299"/><path d="m45.3 110.37c-.08-1.63-.11-2.44-.19-4.07 0 0 .23.9.28 2.05s-.09 2.02-.09 2.02z" fill="#c7b299"/><path d="m65.14 115.6c.16-1.62.24-2.44.39-4.06 0 0 .15.88.04 2.02s-.43 2.04-.43 2.04z" fill="#c7b299"/><path d="m87.8 110.16c.35-1.66.52-2.49.86-4.14 0 0 0 .87-.24 2.03-.25 1.17-.62 2.11-.62 2.11z" fill="#c7b299"/><path d="m101.17 110.4c.47-1.63.71-2.45 1.18-4.08 0 0-.14.83-.48 1.98-.33 1.14-.7 2.1-.7 2.1z" fill="#c7b299"/><path d="m31.32 110.53c-.35-1.61-.52-2.41-.86-4.02 0 0 .3.92.54 2.06s.32 1.96.32 1.96z" fill="#c7b299"/><path d="m21.73 98.78c-.44-1.41-.66-2.12-1.1-3.53 0 0 .29.85.6 1.85s.5 1.68.5 1.68z" fill="#c7b299"/><path d="m55.91 111.3c-.07 1.62-.1 2.43-.17 4.05 0 0-.17-.88-.12-2.03.05-1.14.29-2.02.29-2.02z" fill="#c7b299"/><path d="m79.96 106.99c-.26 1.65-.4 2.47-.66 4.11 0 0-.07-.87.11-2.03.19-1.16.55-2.08.55-2.08z" fill="#c7b299"/><path d="m37.7 105.02c.2 1.63.3 2.45.5 4.08 0 0-.26-.92-.4-2.07-.15-1.14-.1-2.01-.1-2.01z" fill="#c7b299"/><path d="m108.73 99.11c-.46 1.56-.69 2.33-1.16 3.89 0 0 .19-.78.51-1.88s.65-2.01.65-2.01z" fill="#c7b299"/><path d="m96.8 108.28c-.43 1.66-.65 2.49-1.08 4.14 0 0 .09-.85.39-2.02.31-1.16.69-2.12.69-2.12z" fill="#c7b299"/><path d="m25.99 103.77c.42 1.55.63 2.33 1.05 3.89 0 0-.31-.91-.61-2.01-.3-1.09-.44-1.88-.44-1.88z" fill="#c7b299"/><path d="m61.19 107.39c13.5-.07 26.9-.13 39.9-4.25 0 0-5.41 2.56-16.88 3.83s-23.02.42-23.02.42z" fill="#c7b299"/><path d="m109.84 97.87c-.44 1.52-.65 2.28-1.09 3.8-.39.55-.62.82-1.17 1.35.46-1.56.7-2.35 1.16-3.91.52-.49.74-.74 1.1-1.24z" fill="url(#aX)"/><path d="m20.62 95.24c.44 1.42.66 2.13 1.11 3.55-.46-.84-.67-1.28-1.01-2.21l-1.05-3.35c.31.84.5 1.24.95 2.01z" fill="url(#aY)"/><path d="m26.96 101.15c-4.32-2.45-5.82-3.99-7.29-7.92.04.13.06.19.1.31.01.02.01.03.02.05 2.11 5.58 7.17 7.56 7.17 7.56z" fill="#c7b299"/><path d="m101.08 103.13s6.32-1.58 8.65-4.91c.04-.14.06-.21.1-.36-1.64 2.36-3.5 3.47-8.75 5.27z" fill="#c7b299"/><path d="m99.7 115.72.12-.06c-.14.02-.3.06-.48.13 0 .05-.01.1-.03.15.13-.09.26-.16.39-.22z" fill="#fff"/><path d="m100.37 116.24c.12-.08.24-.16.35-.23l.15-.09c.23-.56-.19-.67-1.05-.26.51-.08.72.12.55.58z" fill="#fff"/><path d="m104.85 112.8c-2.27 3.32-4.05 4.65-8.88 6.69.84-1.48 1.17-2.26 1.68-3.9 4.97-1.97 6.79-3.24 8.93-6.3-.49 1.5-.84 2.2-1.73 3.51z" fill="url(#aZ)"/><path d="m30.78 117.05c-3.58-2.93-4.87-4.88-6.91-10.38-.42-1.35-.63-2.02-1.05-3.37 1.93 5.13 3.29 6.98 7.08 9.81.39 1.59.56 2.38.88 3.94z" fill="url(#a0)"/><path d="m42.1 118c-12.04-2.39-15.42-4.44-19.28-14.7-.42-1.35-.63-2.02-1.05-3.37 3.55 9.45 7.35 11.54 19.97 13.94.14 1.65.23 2.49.36 4.13z" fill="url(#a1)"/><path d="m106.58 109.29c-4.28 6.12-9.48 8.16-24.68 9.78.34-1.65.44-2.51.75-4.18 15.58-1.68 21.05-3.78 25-9.42-.43 1.51-.58 2.31-1.07 3.82z" fill="url(#a2)"/><path d="m41.74 113.87c13.58 2.27 27.24 1.85 40.92 1.01-.31 1.67-.41 2.53-.75 4.18-13.11 1.22-26.8 1.17-39.8-1.07-.14-1.63-.23-2.47-.37-4.12z" fill="url(#a3)"/><path d="m59.69 123.57c-9.44-.6-20.89-.3-28.91-6.52-.32-1.56-.49-2.35-.88-3.94 8.68 6.07 20.43 5.87 30.4 6.53-.14 1.62-.26 2.4-.61 3.93z" fill="url(#a4)"/><path d="m95.97 119.49c-11.63 4.5-24.03 4.14-36.28 4.08.35-1.53.47-2.31.61-3.94 12.61.04 25.3.32 37.35-4.05-.5 1.65-.84 2.43-1.68 3.91z" fill="url(#a5)"/><path d="m32.2 114.59c.34 1.62.49 2.42.74 3.99-1.72-1.05-2.48-1.67-3.86-3.11-.36-1.54-.56-2.32-.98-3.88 1.46 1.39 2.27 1.98 4.1 3z" fill="url(#a6)"/><path d="m64.76 119.71c-.19 1.63-.33 2.42-.73 3.94-3.84-.05-5.61-.09-8.91-.24.28-1.53.37-2.32.46-3.95 3.42.16 5.24.21 9.18.25z" fill="url(#a7)"/><path d="m100 114.54c-.52 1.63-.87 2.4-1.74 3.86-1.85.98-2.89 1.41-5.21 2.17.8-1.5 1.11-2.28 1.59-3.94 2.39-.73 3.47-1.15 5.36-2.09z" fill="url(#a8)"/><path d="m86.93 114.33c-.35 1.67-.47 2.54-.86 4.19-3 .46-4.62.64-8.09.88.3-1.65.39-2.5.65-4.16 3.55-.25 5.22-.44 8.3-.91z" fill="url(#a9)"/><path d="m45.49 114.48c.08 1.64.14 2.48.2 4.12-2.82-.39-4.11-.64-6.48-1.26-.19-1.64-.31-2.47-.51-4.12 2.5.61 3.85.86 6.79 1.26z" fill="url(#ba)"/><path d="m22.82 103.3c3.86 10.25 7.24 12.31 19.28 14.7 0 0-6.72-.49-12.06-4.48s-7.22-10.22-7.22-10.22z" fill="#c7b299"/><path d="m42.1 118c13.01 2.24 26.69 2.28 39.8 1.07 0 0-9.42 1.26-21.54.95-12.11-.32-18.26-2.02-18.26-2.02z" fill="#c7b299"/><path d="m81.9 119.06c15.2-1.61 20.39-3.66 24.68-9.78 0 0-2.02 3.87-8.99 6.65-6.97 2.8-15.69 3.13-15.69 3.13z" fill="#c7b299"/><path d="m28.92 109.11c9.27 5.88 21.25 5.75 31.68 6.42 0 0-9.88.42-18.75-1.26-8.88-1.68-12.93-5.16-12.93-5.16z" fill="#c7b299"/><path d="m45.69 118.59c-.06-1.63-.12-2.46-.2-4.1 0 0 .21.91.26 2.06.06 1.15-.06 2.04-.06 2.04z" fill="#c7b299"/><path d="m64.03 123.64c.4-1.51.54-2.3.73-3.92 0 0 .14.88-.07 1.99s-.66 1.93-.66 1.93z" fill="#c7b299"/><path d="m86.07 118.52c.38-1.65.5-2.51.85-4.17 0 0-.01.87-.25 2.04-.25 1.17-.6 2.13-.6 2.13z" fill="#c7b299"/><path d="m98.27 118.39c.86-1.45 1.21-2.22 1.73-3.84 0 0-.16.83-.64 1.91-.49 1.08-1.09 1.93-1.09 1.93z" fill="#c7b299"/><path d="m32.94 118.58c-.25-1.57-.4-2.36-.74-3.97 0 0 .29.93.5 2.05s.24 1.92.24 1.92z" fill="#c7b299"/><path d="m23.95 105.89c-.44-1.42-.67-2.13-1.11-3.55 0 0 .3.87.61 1.87.31 1.01.5 1.68.5 1.68z" fill="#c7b299"/><path d="m55.58 119.47c-.09 1.62-.19 2.41-.46 3.93 0 0-.04-.83.09-1.94s.37-1.99.37-1.99z" fill="#c7b299"/><path d="m78.63 115.25c-.27 1.65-.35 2.5-.65 4.14 0 0-.08-.89.11-2.05s.54-2.09.54-2.09z" fill="#c7b299"/><path d="m38.7 113.22c.2 1.64.32 2.47.51 4.1 0 0-.25-.93-.4-2.08s-.11-2.02-.11-2.02z" fill="#c7b299"/><path d="m106.41 106.93c-.46 1.56-.63 2.38-1.14 3.92 0 0 .16-.79.49-1.89s.65-2.03.65-2.03z" fill="#c7b299"/><path d="m94.64 116.64c-.48 1.65-.79 2.43-1.58 3.92 0 0 .3-.75.75-1.86.44-1.1.83-2.06.83-2.06z" fill="#c7b299"/><path d="m28.11 111.6c.41 1.56.61 2.33.97 3.86 0 0-.27-.91-.55-2-.27-1.08-.42-1.86-.42-1.86z" fill="#c7b299"/><path d="m60.59 115.53c12.91 0 25.83.17 38.19-4.12 0 0-5.18 2.67-16.11 3.85s-22.08.27-22.08.27z" fill="#c7b299"/><path d="m107.65 105.46c-.44 1.53-.58 2.32-1.07 3.83-.46.65-.72.97-1.31 1.58.52-1.55.68-2.37 1.14-3.94.57-.57.82-.87 1.24-1.47z" fill="url(#bb)"/><path d="m22.84 102.33c.45 1.42.67 2.14 1.11 3.56-.49-.98-.72-1.5-1.13-2.6-.42-1.35-.63-2.02-1.05-3.37.38 1.02.59 1.5 1.07 2.41z" fill="url(#bc)"/><path d="m28.92 109.11c-3.97-2.7-5.37-4.45-7.15-9.18.04.13.06.19.1.32.01.02.01.04.02.06 2.53 6.7 7.03 8.8 7.03 8.8z" fill="#c7b299"/><path d="m98.79 111.41s5.97-1.6 8.76-5.6c.04-.14.06-.21.1-.36-1.97 2.83-3.8 4.05-8.86 5.96z" fill="#c7b299"/></g><path d="m20.17 48.47c-6.21 1.45-9.9 3.22-9.96 5.13-.02.58.31 1.15.93 1.71 1.18-.8 3.03-1.56 5.42-2.26 1.07-1.49 2.02-3.18 3.61-4.58z" fill="url(#bd)"/><path d="m26.13 47.31c-2.18.36-4.18.75-5.96 1.16-1.58 1.4-2.54 3.09-3.6 4.57 1.67-.49 3.61-.95 5.78-1.37 1.06-1.66 2.31-3.12 3.78-4.36z" fill="url(#be)"/><path d="m26.13 47.31c-1.47 1.24-2.72 2.7-3.78 4.36 2.07-.41 4.37-.78 6.84-1.12 1.31-1.42 2.42-2.82 3.56-4.17-2.35.28-4.57.59-6.62.93z" fill="url(#bf)"/><path d="m46.31 45.22c-2.45.14-4.83.31-7.1.51-1.28 1.28-2.47 2.66-3.62 4.07 2.02-.2 4.12-.38 6.29-.54 1.34-1.55 2.83-2.87 4.43-4.04z" fill="url(#bg)"/><path d="m58.89 44.78c-2.34.04-4.65.1-6.9.18-1.4 1.1-2.7 2.38-3.83 3.93 2.14-.1 4.33-.18 6.57-.24 1.33-1.41 2.71-2.7 4.16-3.87z" fill="url(#bh)"/><path d="m63.93 44.73c-1.71 0-3.38.02-5.04.05-1.45 1.18-2.83 2.46-4.15 3.86 2.46-.07 4.98-.1 7.54-.11 1.61-1.28 3.22-2.56 4.83-3.79-1.06-.01-2.11-.01-3.18-.01z" fill="url(#bi)"/><path d="m67.1 44.74c-1.61 1.23-3.22 2.5-4.83 3.79.33 0 .65-.01.98-.01 2.53 0 5.01.03 7.44.09 1.67-1.23 3.31-2.48 4.97-3.67-2.78-.1-5.63-.17-8.56-.2z" fill="url(#bj)"/><path d="m75.66 44.94c-1.66 1.19-3.29 2.44-4.97 3.67 2.34.05 4.63.14 6.87.24 2.17-1.01 4.15-2.22 6.05-3.5-2.55-.17-5.21-.31-7.95-.41z" fill="url(#bk)"/><path d="m83.62 45.35c-1.9 1.29-3.88 2.49-6.05 3.5 2.59.12 5.1.27 7.52.45 1.72-1.04 3.45-2.25 5.22-3.42-2.15-.2-4.38-.38-6.69-.53z" fill="url(#bl)"/><path d="m97.05 46.63c-1.79 1.02-3.53 2.18-5.32 3.26 2.28.24 4.45.51 6.48.8 1.73-1.17 3.57-2.21 5.52-3.02-2.05-.38-4.28-.73-6.68-1.04z" fill="url(#bm)"/><path d="m103.73 47.67c-1.95.82-3.79 1.85-5.52 3.02 2.33.34 4.48.7 6.42 1.1 2.03-1.05 4.06-1.83 6.09-2.5-1.96-.58-4.31-1.12-6.99-1.62z" fill="url(#bn)"/><path d="m110.72 49.3c-2.03.67-4.06 1.45-6.09 2.5 5.51 1.12 9.39 2.47 11.04 3.96 1.02-.67 1.6-1.38 1.64-2.1.09-1.59-2.31-3.08-6.59-4.36z" fill="url(#bo)"/><path d="m90.3 45.88c-1.77 1.18-3.5 2.38-5.22 3.42 2.31.17 4.52.37 6.65.6 1.79-1.09 3.53-2.24 5.32-3.26-2.13-.29-4.38-.54-6.75-.76z" fill="url(#bp)"/><path d="m51.99 44.96c-1.93.07-3.84.16-5.68.27-1.59 1.17-3.08 2.49-4.42 4.04 2.03-.15 4.13-.27 6.28-.38 1.12-1.55 2.42-2.83 3.82-3.93z" fill="url(#bq)"/><path d="m32.75 46.38c-1.14 1.35-2.25 2.75-3.56 4.17 2.01-.28 4.16-.53 6.4-.75 1.15-1.41 2.34-2.79 3.62-4.07-2.25.19-4.41.41-6.46.65z" fill="url(#br)"/><path d="m63.14 62.56c25.21.02 46.59-2.88 52.53-6.81-4.57-4.12-26.25-7.23-52.42-7.23-25.23 0-46.37 2.88-52.11 6.78 4.62 4.11 26.05 7.23 52 7.26z" fill="url(#bs)"/><g stroke="#a8763f" stroke-width=".5221"><path d="m26.9 61.82c1.45-.95 2.93-1.11 3.63-1.17-1.89-.25-3.67-.52-5.34-.81v.01s-1.71-.16-4.59 1.88c-2.25 1.6-3.59 3.45-6.83 2.35l-.01.07c1.64.57 3.46 1.11 5.47 1.61 4.41-.23 4.47-1.86 7.67-3.94z" fill="#c8934d"/><path d="m20.59 61.72c2.88-2.04 4.59-1.88 4.59-1.88v-.01c-1.83-.31-3.51-.65-5.04-1.01-.6.06-1.94.37-3.82 1.7-2.05 1.46-3.26 3.14-6.23 2.14v.02c1.08.51 2.3 1 3.65 1.46l.01-.07c3.26 1.1 4.59-.75 6.84-2.35z" fill="#bd892d"/><path d="m33.69 62.13c1.08-.74 2.15-.78 2.59-.82-2.01-.2-3.93-.42-5.76-.66-.69.06-2.18.22-3.63 1.17-3.2 2.08-3.26 3.71-7.68 3.93 1.64.41 3.39.81 5.26 1.17l.01-.04c4.66-.23 5.91-2.49 9.21-4.75z" fill="#bd892d"/><path d="m7.88 55.23c1.83-1.13 3.27.07 3.27.07-.62-.55-.95-1.13-.93-1.71 0-.11.03-.23.06-.35h-.01s-2.47-1.89-5.51 1.05c-.35.5-.58 1.01-.68 1.54.04 2.49 1.98.52 3.8-.6z" fill="#bd892d"/><path d="m47.11 63.09c.92-.55 1.72-.74 1.97-.86-2.28-.11-4.49-.24-6.63-.39-.38.13-.93.32-1.54.66-3.57 2.01-4.74 5.12-9.08 5.64 2 .28 4.09.54 6.26.77 4.38-.58 5.48-3.72 9.02-5.82z" fill="#bd892d"/><path d="m8.79 57.83c2.13-1.95 4.23-1.12 4.23-1.12l.03-.19c-.8-.39-1.44-.79-1.91-1.21 0-.01-1.44-1.2-3.27-.07-1.81 1.12-3.76 3.09-3.8.61-.03.18-.07.37-.07.56-.03.91.31 1.81.98 2.67.66.64 1.96.44 3.81-1.25z" fill="#c8934d"/><path d="m12.57 59.14c1.61-1.14 2.75-1.42 3.31-1.49-1.09-.36-2.04-.74-2.84-1.13l-.03.19s-2.1-.83-4.23 1.12c-1.84 1.69-3.15 1.9-3.8 1.25.53.68 1.26 1.34 2.2 1.98 2.55.81 3.61-.66 5.39-1.92z" fill="#bd892d"/><path d="m16.32 60.52c1.88-1.33 3.21-1.63 3.82-1.7-1.59-.37-3.02-.77-4.26-1.18-.56.07-1.7.35-3.31 1.49-1.78 1.27-2.85 2.73-5.39 1.93.82.56 1.8 1.09 2.91 1.62v-.02c2.97 1.01 4.18-.68 6.23-2.14z" fill="#c8934d"/><path d="m40.9 62.5c.61-.35 1.16-.53 1.54-.66-2.13-.16-4.18-.33-6.16-.53-.45.04-1.51.08-2.59.82-3.3 2.26-4.55 4.52-9.2 4.75l-.01.04c2.28.44 4.74.85 7.34 1.22 4.34-.52 5.52-3.63 9.08-5.64z" fill="#c8934d"/><path d="m100.1 60.96c1.55-.9 2.87-1.15 3.02-1.33-3.16.57-6.75 1.08-10.7 1.5-.47.18-1.04.43-1.65.79-4.9 2.86-6.56 7.12-12.32 8.14 2.53-.12 5-.29 7.38-.49 7.21-.54 8.78-5.42 14.27-8.61z" fill="#bd892d"/><path d="m111.3 61.55c1.72-3.44 3.23-5.14 3.24-5.16-1.24.62-2.89 1.22-4.88 1.77-.01.03-.02.05-.02.05-.09.16-2.11 1.22-3.07 2.23-3.89 4.12-4.39 6.23-9.17 7.8v.01c2.91-.43 5.64-.93 8.16-1.48 1.79-.41 4.18-2.1 5.74-5.22z" fill="#bd892d"/><path d="m54.2 63.46c1.12-.66 2.08-.84 2.18-.97l.01-.01c-2.5-.06-4.94-.14-7.31-.24-.25.12-1.05.31-1.97.86-3.54 2.09-4.63 5.24-9.03 5.82 2.3.24 4.7.46 7.19.64 4.09-.87 5.34-3.99 8.93-6.1z" fill="#c8934d"/><path d="m106.58 60.43c.95-1.01 2.98-2.07 3.07-2.23 0 0 .01-.02.02-.05-1.89.53-4.08 1.02-6.55 1.47-.15.18-1.46.43-3.02 1.33-5.48 3.2-7.06 8.07-14.26 8.61 4.1-.34 7.98-.79 11.57-1.33v-.01c4.78-1.57 5.28-3.68 9.17-7.79z" fill="#c8934d"/><path d="m62.72 63.4c.77-.45 1.46-.7 1.89-.85-.49 0-.97.01-1.47.01-2.29 0-4.54-.03-6.75-.08l-.01.01c-.1.13-1.06.31-2.18.97-3.59 2.12-4.84 5.23-8.93 6.1 2.38.18 4.85.33 7.4.45 4.78-.77 6.07-4.27 10.05-6.61z" fill="#bd892d"/><path d="m90.76 61.92c.61-.35 1.18-.6 1.65-.79-2.94.31-6.09.58-9.38.8-.36.16-1.33.41-2.46 1.07-4.43 2.6-5.88 6.48-11.2 7.33 3.1-.03 6.13-.13 9.08-.27 5.76-1.03 7.42-5.28 12.31-8.14z" fill="#c8934d"/><path d="m71.62 63.29c.85-.5 1.6-.74 2.03-.9-2.93.1-5.96.15-9.04.16-.43.15-1.12.39-1.89.85-3.98 2.34-5.27 5.84-10.05 6.61 2.44.11 4.94.2 7.52.26l.01-.07c5.82-.4 7.04-4.34 11.42-6.91z" fill="#c8934d"/><path d="m80.57 63c1.13-.65 2.1-.91 2.46-1.07-3.01.2-6.14.36-9.38.46-.43.15-1.18.4-2.03.9-4.38 2.57-5.6 6.51-11.42 6.91l-.01.07c.91.02 1.82.04 2.74.05 2.18.03 4.33.04 6.45.01 5.32-.85 6.76-4.73 11.19-7.33z" fill="#bd892d"/></g><path d="m64.15 43.11c-30.54 0-54.88 4.75-59.39 11.2 3.04-2.94 5.51-1.05 5.51-1.05h.01c1.23-4.75 24.78-8.53 53.66-8.53 29.72 0 53.68 3.99 53.37 8.92 0 0-.04-2.16 4.13-.75-7.38-5.59-29.88-9.8-57.29-9.79z" fill="#998675"/><g stroke="#a8763f" stroke-width=".5221"><path d="m116.59 57.34c-.16-1.86.02-2.35.02-2.35-.47.48-1.16.94-2.06 1.39-.01.02-1.52 1.72-3.24 5.16-1.56 3.12-3.96 4.81-5.74 5.22 2.96-.64 5.62-1.36 7.95-2.14 3.37-1.07 3.19-5.89 3.07-7.28z" fill="#c8934d"/><path d="m119.81 55.13c-1.33-1.78-2.68-.84-2.69-.84-.12.24-.29.48-.51.71 0 0-.18.49-.02 2.35.12 1.39.3 6.21-3.08 7.28 2.26-.75 4.2-1.57 5.78-2.42 2.62-1.92 1.76-5.43.52-7.08z" fill="#bd892d"/><path d="m123.99 57.08c.09-1.44-.81-2.85-2.56-4.18-4.17-1.41-4.13.75-4.13.75-.01.21-.07.42-.18.63 0 0 1.35-.94 2.69.84 1.24 1.66 2.1 5.16-.52 7.08 2.92-1.58 4.59-3.31 4.7-5.12z" fill="#c8934d"/></g><path d="m12.89 62.79c-.77.24-1.65.26-2.79-.13v.02c1.08.51 2.3 1 3.65 1.46l.01-.07c2.79.95 4.17-.29 5.93-1.67-3.02 2.01-5.88.86-6.8.39z" fill="#dcc090"/><g opacity=".75"><path d="m119.81 55.13c-1.33-1.78-2.68-.84-2.69-.84-.12.24-.29.48-.51.71 0 0-.18.49-.02 2.35.12 1.39.3 6.21-3.08 7.28 2.26-.75 4.2-1.57 5.78-2.42 2.62-1.92 1.76-5.43.52-7.08zm-1.61 6.47c-.97.13-.81-3.09-.57-4.16 0 0 .12-2.75 1.75-.69 1.62 2.07-.22 4.72-1.18 4.85z" fill="#bd892d" opacity=".43"/><g fill="#dcc090"><path d="m22.89 64.93-.04-.03c-.84.46-1.9.76-3.63.85 1.64.41 3.39.81 5.26 1.17l.01-.04c2.9-.14 4.48-1.08 6.06-2.31-4.47 2.13-7.66.36-7.66.36z"/><path d="m35.44 66.8c-.98.65-2.11 1.16-3.62 1.34 2 .28 4.09.54 6.26.77 2.77-.37 4.23-1.76 5.81-3.25-.54.1-1.06.24-1.54.47-3.19 1.53-5.72 1.06-6.91.67z"/><path d="m49.25 68.01-.29-.22c-1.01.79-2.15 1.44-3.68 1.76 2.38.18 4.85.33 7.4.45 2.39-.39 3.91-1.46 5.33-2.73-.37.09-.73.2-1.07.36-4.5 2.16-7.69.38-7.69.38z"/><path d="m65.68 68.17c-1.4 1.06-3.03 1.86-5.49 2.03l-.01.07c.91.02 1.82.04 2.74.05 2.18.03 4.33.04 6.45.01 2.72-.43 4.43-1.66 6.04-3.1-.03.01-.06.02-.09.04-4.41 2.07-9.36.96-9.64.9z"/><path d="m83.69 67.7c-1.42 1.09-3.03 1.96-5.24 2.35 2.53-.12 5-.29 7.38-.49 4.29-.33 6.59-2.18 8.9-4.32-5.55 3.46-10.14 2.67-11.04 2.46z"/><path d="m109.67 58.16c-.01.03-.02.05-.02.05-.03.05-.29.22-.64.44.02-.01 5.54-2.25 2.64 1.86-2.91 4.11-8.99 4.87-8.99 4.87l2.03-2.81c-2.34 2.77-3.4 4.39-7.27 5.67v.01c2.91-.43 5.64-.93 8.16-1.48 1.78-.41 4.18-2.1 5.74-5.22 1.72-3.44 3.23-5.14 3.24-5.16-1.26.62-2.9 1.22-4.89 1.77z"/><path d="m8.47 61.29c-.39 0-.81-.08-1.29-.22.82.56 1.8 1.09 2.91 1.62v-.02c2.6.88 3.85-.31 5.49-1.59-3.67 2.46-7.1.22-7.11.21z"/><path d="m17.87 63.95c-.1-.02-.19-.04-.29-.06-1.03.54-2.17.73-3.81.18l-.01.07c1.64.57 3.46 1.11 5.47 1.61 2.21-.11 3.33-.58 4.3-1.28-3.09 1.15-5.66-.52-5.66-.52z"/><path d="m28.52 66.04-.12-.09c-1.04.5-2.26.84-3.91.93l-.01.04c2.28.44 4.74.85 7.34 1.22 2.55-.31 4-1.5 5.49-2.84-.39.09-.77.21-1.12.38-4.48 2.14-7.67.36-7.67.36z"/><path d="m41.61 67.59c-.95.63-2.05 1.12-3.53 1.32 2.3.24 4.7.46 7.19.64 2.25-.48 3.64-1.64 5.04-2.94-.49.1-.96.23-1.39.44-3.6 1.72-6.36.92-7.31.54z"/><path d="m57.08 68.06c-1.18.91-2.52 1.65-4.41 1.95 2.44.11 4.94.2 7.52.26l.01-.07c3.47-.24 5.3-1.73 7.14-3.45-5.04 3.08-10.04 1.38-10.26 1.31z"/><path d="m74.1 68.31c-1.27.95-2.72 1.7-4.73 2.01 3.1-.03 6.13-.13 9.08-.27 3.17-.56 5.09-2.1 7.01-3.85-5.74 3.56-11.36 2.11-11.36 2.11z"/><path d="m104.17 63.16c-4.37 4.24-10.92 3.38-10.92 3.38-1.89 1.55-4.03 2.77-7.42 3.02 4.1-.34 7.98-.79 11.57-1.33v-.01c3.59-1.18 4.77-2.66 6.77-5.06z"/></g><path d="m116.59 57.34c-.16-1.86.02-2.35.02-2.35-.47.48-1.16.94-2.06 1.39-.01.02-1.52 1.72-3.24 5.16-1.56 3.12-3.96 4.81-5.74 5.22 2.96-.64 5.62-1.36 7.95-2.14 3.37-1.07 3.19-5.89 3.07-7.28zm-4.78 5.14c.87-2.1 2.3-3.87 2.3-3.87s1.43-2.24 1.42.7c-.01 3.55-4.59 5.28-3.72 3.17z" fill="url(#bt)" opacity=".62"/><path d="m123.99 57.08c.09-1.44-.81-2.85-2.56-4.18-4.17-1.41-4.13.75-4.13.75-.01.21-.07.42-.18.63 0 0 1.35-.94 2.69.84 1.24 1.66 2.1 5.16-.52 7.08 2.92-1.58 4.59-3.31 4.7-5.12zm-3.06-1.65c-.55-1.16-1.71-2.38-.79-1.97 0 0 2.91.99 2.79 2.77-.12 1.79-1.33.61-2-.8z" fill="#dcc090"/><path d="m4.61 57.02c-.32-.07-.52-.4-.54-1.18-.03.19-.07.38-.07.57-.03.91.31 1.81.98 2.67.58.57 1.68.47 3.21-.74-2.2 1.02-3.58-1.32-3.58-1.32z" fill="#dcc090"/><path d="m13.67 58.16.3.14c.88-.45 1.54-.6 1.92-.65-1.09-.36-2.04-.74-2.84-1.13l-.03.19s-1.65-.65-3.51.57c2.55-1.06 4.16.88 4.16.88z" fill="#bd892d"/><path d="m7.07 59.07c-.95.48-1.66.43-2.09.01.53.68 1.26 1.34 2.2 1.98 2.02.64 3.11-.16 4.36-1.14-3.04.9-4.47-.85-4.47-.85z" fill="#dcc090"/></g><g fill="#ecc68c" opacity=".53"><path d="m58.99 63.3s-3.37-.33-5.97 2.23c-2.6 2.55 1.34 2.86 5.97-2.23z"/><path d="m50.93 63.4s-2.8-.28-4.96 1.85c-2.15 2.13 1.12 2.39 4.96-1.85z"/><path d="m43.55 63.06s-2.35-.29-4.22 1.41.88 1.99 4.22-1.41z"/><path d="m30.56 61.69s-2.27-.3-4.08 1.49c-1.81 1.78.84 2.08 4.08-1.49z"/><path d="m37.02 62.66s-2.27-.3-4.08 1.49.84 2.08 4.08-1.49z"/><path d="m19.42 60.3s-1.74-.22-3.12 1.14c-1.37 1.37.66 1.6 3.12-1.14z"/><path d="m15.67 59.22s-1.74-.22-3.12 1.14c-1.37 1.37.65 1.59 3.12-1.14z"/><path d="m23.95 61.31s-1.74-.22-3.12 1.14c-1.39 1.37.64 1.59 3.12-1.14z"/><path d="m76.13 63.33s-3.38-.33-6 2.24c-2.62 2.56 1.33 2.87 6-2.24z"/><path d="m67.53 63.54s-3.38-.33-5.99 2.23 1.33 2.87 5.99-2.23z"/><path d="m95.2 61.97s-3.42-.11-5.86 2.6c-2.42 2.71 1.56 2.77 5.86-2.6z"/><path d="m104.21 60.65s-3.43-.11-5.87 2.6c-2.44 2.72 1.55 2.77 5.87-2.6z"/><path d="m85.24 62.79s-3.39-.35-6.04 2.2c-2.64 2.54 1.3 2.87 6.04-2.2z"/><path d="m110.48 59.29s-1.86-.21-3.28 1.89c-1.42 2.11.76 2.3 3.28-1.89z"/><path d="m11.47 57.62s-1.33-.3-2.08.49c-.74.79-.11 1.14 1.07.65 1.18-.47 1.8-1.09 1.01-1.14z"/><path d="m8.95 56s-1.37-.02-1.95.78c-.57.81.12.99 1.19.38 1.06-.62 1.55-1.26.76-1.16z"/><path d="m7.72 53.65s-1.37.1-1.86.95c-.48.84.23.97 1.23.27 1-.71 1.41-1.39.63-1.22z"/></g><path d="m32.88 51.57c.18-.37.28-.77.34-1.19-.93-1.62-1.91-3.26-2.94-4.86.76 2.5-.46 5.5-1.23 8.23 1.28 2.24 2.58 4.67 3.88 7.28-.54-3.12-.47-6.46-.05-9.46z" fill="url(#bv)"/><path d="m14.12 51.77c-.18-1.17-.34-2.33-.46-3.46-1.41 1.55-3.1 2.9-4.91 3.13.22 1.55.48 2.98.71 4.2 1.93-.7 3.63-2.11 4.66-3.87z" fill="url(#bw)"/><path d="m14.61 54.59c-.18-.94-.35-1.88-.49-2.82-1.03 1.76-2.72 3.17-4.67 3.88.44 2.28.82 3.82.84 3.93.01.02.02.04.02.06 2.06-.93 3.54-2.84 4.3-5.05z" fill="url(#bx)"/><path d="m15.41 58.32c-.3-1.21-.56-2.46-.8-3.73-.76 2.21-2.25 4.12-4.29 5.05.38 1.37 1.78 2.21 3.17 1.87 1.41-.35 2.27-1.78 1.92-3.19z" fill="url(#by)"/><path d="m8.74 51.45c1.81-.23 3.51-1.58 4.91-3.13-.09-.81-.16-1.61-.21-2.38-1.79.5-3.76.24-5.34-1.01.06 1.38.18 2.86.37 4.47.08.7.17 1.38.27 2.05z" fill="url(#bz)"/><path d="m13.39 41.19c-.8.18-1.68.16-2.65-.17-1.07-1.07-1.77-2.14-2.15-3.24-.45 1.91-.61 4.29-.49 7.14 1.58 1.25 3.55 1.51 5.34 1.01v-.02c-.18-.23-.38-.46-.59-.67.21.21.41.44.59.67-.11-1.73-.14-3.35-.05-4.72z" fill="url(#bB)"/><path d="m13.39 41.19c.11-1.6.38-2.87.85-3.64-1.99-1.05-2.23-3.19-1.18-5.53-1.01.34-1.91.94-2.64 1.82-.82.98-1.43 2.29-1.82 3.95.39 1.11 1.09 2.18 2.15 3.24.97.32 1.84.35 2.64.16z" fill="url(#bC)"/><path d="m14.24 37.55c.07-.11.13-.23.2-.32.15-.18.27-.28.68-.25.49.03 1.09.32 1.78.78-.35-1.93-.3-3.93.17-5.72-.53-.17-1.05-.28-1.57-.32-.87-.06-1.69.05-2.44.3-1.05 2.34-.81 4.48 1.18 5.53z" fill="url(#bD)"/><path d="m17.4 38.12c.08.06.17.14.26.21l.22-.22c-.17.02-.33.02-.48.01z" fill="url(#bE)"/><path d="m22.33 35.45c-1.76-1.66-3.54-2.86-5.26-3.41-.46 1.8-.52 3.79-.17 5.72.16.11.32.23.49.36.16 0 .32 0 .47-.01l.25-.25-.25.25c.96-.04 1.88-.34 2.36-1.31-.48.96-1.4 1.26-2.36 1.31l-.22.22c1.38 1.12 3.03 2.91 4.87 5.35-.47-2.62-.22-5.42-.18-8.23z" fill="url(#bF)"/><path d="m25.1 47.32c.04-.25.1-.51.15-.76-.24-.01-.49-.05-.74-.09.2.28.39.55.59.85z" fill="url(#bG)"/><path d="m22.33 35.45c-.05 2.81-.3 5.61.19 8.23.64.85 1.31 1.79 1.99 2.78.25.05.5.08.74.09.42-2.11 1.05-4.29 1.24-6.43-1.36-1.76-2.75-3.35-4.16-4.67z" fill="url(#bH)"/><path d="m30.29 45.53c-.5-.79-1.02-1.56-1.54-2.32-.03-.02-.05-.05-.08-.07.03.02.05.05.08.07-.73-1.07-1.48-2.1-2.25-3.08-.19 2.14-.82 4.32-1.24 6.43.71.03 1.31-.2 1.31-1.31 0 1.12-.59 1.34-1.31 1.31-.05.25-.11.51-.15.76.45.68.92 1.4 1.38 2.14h2.19-2.19c.84 1.34 1.7 2.76 2.58 4.29.76-2.72 1.98-5.73 1.22-8.22z" fill="url(#bI)"/><path d="m37.05 57.49c-1.1-2.18-2.4-4.62-3.82-7.11-.06.42-.16.82-.34 1.19-.43 3-.5 6.34.05 9.46.77 1.54 1.53 3.15 2.3 4.81.44.97 1.4 1.54 2.4 1.54.03 0 .06-.01.09-.01-1.14-2.78-.69-6.45-.68-9.88z" fill="url(#bJ)"/><path d="m38.72 67.15c1.32-.61 1.91-2.17 1.3-3.49-.68-1.48-1.7-3.65-2.97-6.17-.01 3.43-.46 7.1.67 9.89.33-.02.68-.08 1-.23z" fill="url(#bK)"/><path d="m64.12 46.06c12.15 0 23.79.84 33.66 2.42.16.03.32.04.47.04 1.02 0 1.99-.53 2.53-1.42l.1-.16c.01-.02.03-.05.04-.07.03.29.1.58.22.85.38.91 1.18 1.57 2.15 1.77 4.41.91 8.18 1.96 11.18 3.12.35.13.71.2 1.07.2.52 0 1.03-.14 1.49-.4.17-.1.34-.22.48-.35-.07 1.07.45 2.1 1.36 2.69.31.2.55.37.75.51 1.16.88 1.4 1.47 1.39 1.62-.01.23-.46 1.07-2.34 2.23-.63.39-1.09 1-1.3 1.71l-13.28 46.18c-.02.07-.04.13-.05.2-1.92 8.95-14.29 13.49-36.77 13.49-.56 0-1.12 0-1.69-.01-25.57-.25-34.31-2.36-39.03-14.99l-13.76-43.92c-.25-.79-.81-1.44-1.55-1.79-.02-.01-.03-.02-.05-.02-1.01-.48-1.85-.94-2.47-1.36-.69-.47-1.21-.93-1.54-1.36-.13-.17-.35-.48-.36-.73 0-.03.01-.06.02-.09.03-.12.09-.26.2-.41.27-.38 1-1.18 2.92-2.2.97-.52 1.57-1.53 1.58-2.61.15.14.31.27.48.38.48.3 1.03.46 1.58.46.32 0 .65-.05.96-.16 2.86-.98 6.33-1.86 10.3-2.62.99-.19 1.81-.86 2.19-1.79.12-.3.2-.62.22-.94.1.15.19.3.29.45.55.86 1.5 1.36 2.5 1.36.15 0 .29-.01.44-.03 9.78-1.46 21.39-2.23 33.58-2.23h.04m50.49-16.08c-.16 0-.32.01-.48.02-.52.04-1.05.15-1.58.32-1.73.55-3.5 1.76-5.27 3.41-1.41 1.32-2.8 2.91-4.17 4.67-.76.98-1.51 2.02-2.25 3.08-.52.76-1.04 1.53-1.55 2.32-.36.57-.72 1.14-1.07 1.72-9.61-1.54-21.34-2.46-34.13-2.46h-.06c-12.75 0-24.41.83-34.02 2.26-.47-.73-.95-1.45-1.44-2.16-.73-1.07-1.49-2.1-2.25-3.08-1.36-1.76-2.76-3.36-4.17-4.67-1.77-1.66-3.54-2.87-5.27-3.41-.53-.17-1.06-.28-1.58-.32-.16-.01-.32-.02-.48-.02-.69 0-1.35.11-1.97.32-1.01.34-1.91.94-2.65 1.82-.83.98-1.43 2.29-1.82 3.95-.45 1.91-.61 4.29-.49 7.15.06 1.38.18 2.86.37 4.47.07.61.15 1.2.24 1.79-1.84.98-3.19 2.02-3.95 3.12-.35.5-.58 1.01-.68 1.54-.02.16-.05.36-.06.55-.03.91.31 1.81.99 2.67.53.68 1.27 1.34 2.2 1.98.82.56 1.8 1.09 2.92 1.62h.01l13.79 43.99c5.57 15.01 16.74 16.76 41.81 17.01.58.01 1.15.01 1.72.01 24 0 37.38-5.15 39.68-15.85l13.3-46.19c2.32-1.43 3.65-2.97 3.75-4.57.09-1.44-.81-2.85-2.56-4.18-.29-.22-.6-.43-.94-.64.14-.78.27-1.61.4-2.49.1-.66.19-1.35.27-2.04.19-1.61.31-3.09.37-4.47.12-2.85-.04-5.23-.49-7.15-.39-1.65-1-2.97-1.82-3.95-.74-.88-1.64-1.48-2.65-1.82-.62-.21-1.28-.32-1.97-.32zm.94 19.82c-3.15-1.21-7.08-2.31-11.65-3.25.21-.32.42-.64.62-.95.2-.3.39-.57.59-.86.68-.99 1.35-1.93 1.99-2.78 1.84-2.44 3.5-4.23 4.87-5.35.09-.07.17-.15.26-.21.17-.13.33-.25.49-.36.69-.47 1.29-.75 1.78-.78h.12c.31 0 .43.1.56.26.08.09.14.21.2.32.47.77.73 2.04.85 3.64.1 1.37.07 2.99-.05 4.73v.02c-.05.77-.13 1.57-.21 2.38-.11 1.03-.26 2.11-.42 3.19zm-101.96-.78c-.03-.25-.07-.51-.09-.75-.09-.81-.16-1.61-.21-2.38v-.02c-.12-1.74-.15-3.36-.05-4.73.11-1.6.38-2.88.85-3.64.07-.11.13-.23.2-.32.13-.16.24-.26.56-.26h.12c.49.03 1.1.32 1.78.78.16.11.32.23.49.36.08.06.17.14.26.21 1.38 1.12 3.03 2.91 4.87 5.35.62.81 1.26 1.72 1.91 2.66-4.1.81-7.7 1.72-10.69 2.74z" fill="#424242" opacity=".2"/></svg>